<svg width="30" height="30" viewBox="0 0 31 37" fill="none" xmlns="http://www.w3.org/2000/svg">
<path d="M2.85767 12.2002C2.25463 12.2002 1.74296 12.4165 1.32236 12.8491C0.901768 13.2817 0.691406 13.8009 0.691406 14.4067V23.7096C0.691406 24.3306 0.901705 24.8565 1.32236 25.2891C1.74296 25.7217 2.25463 25.9381 2.85767 25.9381C3.46028 25.9381 3.96884 25.7218 4.38292 25.2891C4.79618 24.8565 5.00337 24.3306 5.00337 23.7096V14.4067C5.00337 13.8008 4.79308 13.2817 4.37242 12.8491C3.95176 12.4165 3.44674 12.2002 2.85767 12.2002Z" fill="white"/>
<path d="M20.2725 3.84887L21.7659 1.01521C21.8639 0.827609 21.8291 0.683752 21.661 0.582596C21.4785 0.49537 21.3384 0.539569 21.2404 0.712067L19.7261 3.56838C18.3936 2.96243 16.9843 2.65889 15.4982 2.65889C14.0117 2.65889 12.6023 2.96249 11.2703 3.56838L9.75594 0.712067C9.65753 0.539569 9.51735 0.495761 9.33534 0.582596C9.16687 0.684207 9.132 0.827609 9.23041 1.01521L10.7239 3.84887C9.20953 4.64321 8.00343 5.74948 7.10604 7.17009C6.20865 8.59148 5.75977 10.1447 5.75977 11.8326H25.2154C25.2154 10.1451 24.7665 8.5918 23.8691 7.17009C22.9717 5.74948 21.7726 4.64321 20.2725 3.84887ZM11.6382 7.97048C11.4767 8.13699 11.2838 8.21986 11.0596 8.21986C10.835 8.21986 10.646 8.13699 10.4918 7.97048C10.3377 7.80475 10.2606 7.60713 10.2606 7.37572C10.2606 7.14509 10.3377 6.94708 10.4918 6.78096C10.646 6.61523 10.8354 6.53237 11.0596 6.53237C11.2838 6.53237 11.4767 6.61523 11.6382 6.78096C11.7994 6.94747 11.8803 7.14509 11.8803 7.37572C11.8799 7.60674 11.799 7.80475 11.6382 7.97048ZM20.5037 7.97048C20.3492 8.13699 20.1598 8.21986 19.9359 8.21986C19.7112 8.21986 19.5184 8.13699 19.3572 7.97048C19.1958 7.80475 19.1152 7.60713 19.1152 7.37572C19.1152 7.14509 19.1958 6.94708 19.3572 6.78096C19.5184 6.61523 19.7112 6.53237 19.9359 6.53237C20.1602 6.53237 20.3491 6.61523 20.5037 6.78096C20.658 6.94747 20.7349 7.14509 20.7349 7.37572C20.7349 7.60674 20.6579 7.80475 20.5037 7.97048Z" fill="white"/>
<path d="M5.84375 27.0191C5.84375 27.6832 6.06797 28.2453 6.51648 28.7067C6.96536 29.168 7.5119 29.3986 8.15709 29.3986H9.71367L9.73499 34.3102C9.73499 34.9304 9.94529 35.4571 10.3659 35.8898C10.7865 36.3224 11.2916 36.5387 11.8803 36.5387C12.4829 36.5387 12.9949 36.3224 13.4156 35.8898C13.8362 35.4571 14.0465 34.9305 14.0465 34.3102V29.3991H16.9491V34.3102C16.9491 34.9304 17.1593 35.4571 17.5799 35.8898C18.0006 36.3224 18.5121 36.5387 19.1153 36.5387C19.7179 36.5387 20.2299 36.3224 20.6506 35.8898C21.0712 35.4571 21.2815 34.9305 21.2815 34.3102V29.3991H22.859C23.4899 29.3991 24.0294 29.1684 24.4788 28.7071C24.9272 28.2457 25.1516 27.6836 25.1516 27.0196V12.6104H5.84375V27.0191Z" fill="white"/>
<path d="M28.1395 12.2002C27.5503 12.2002 27.0457 12.4133 26.625 12.8384C26.2044 13.2642 25.9941 13.7873 25.9941 14.4067V23.7096C25.9941 24.3306 26.2044 24.8565 26.625 25.2891C27.0457 25.7218 27.5507 25.9381 28.1395 25.9381C28.7421 25.9381 29.2541 25.7218 29.6748 25.2891C30.0954 24.8565 30.3057 24.3306 30.3057 23.7096V14.4067C30.3057 13.7872 30.0954 13.2642 29.6748 12.8384C29.2541 12.4133 28.7421 12.2002 28.1395 12.2002Z" fill="white"/>
</svg>
