<svg width="30" height="30" viewBox="0 0 29 37" fill="none" xmlns="http://www.w3.org/2000/svg">
<path d="M24.0901 20.7178C23.1274 15.734 27.7264 12.8111 27.7264 12.8111C27.7264 12.8111 25.9346 10.1446 22.9231 9.45865C19.9132 8.77118 18.4067 9.63011 16.9032 10.2743C15.3982 10.9201 14.6473 10.9201 14.6473 10.9201C12.4754 10.9201 10.8878 8.55489 6.7499 9.63169C3.89917 10.3717 0.898191 13.7565 0.355982 17.7964C-0.186226 21.8379 0.983836 26.9947 3.23978 30.9913C5.49572 34.991 7.79379 36.4942 9.42487 36.5375C11.056 36.5791 12.6842 35.3355 14.6473 35.0327C16.6119 34.733 17.8209 35.765 19.7479 36.3227C21.6674 36.8789 22.3403 36.3629 24.5512 34.4287C26.7681 32.4945 28.7748 26.9468 28.7748 26.9468C28.7748 26.9468 25.0529 25.7047 24.0901 20.7178Z" fill="white"/>
<path d="M19.8279 6.23503C21.9607 3.99964 21.2383 0.539062 21.2383 0.539062C21.2383 0.539062 18.2434 1.07979 16.2367 3.22715C14.2316 5.37609 14.5635 8.77021 14.5635 8.77021C14.5635 8.77021 17.6951 8.46898 19.8279 6.23503Z" fill="white"/>
</svg>
