<svg width="1230" height="889" viewBox="0 0 1230 889" fill="none" xmlns="http://www.w3.org/2000/svg">
<g opacity="0.3">
<path d="M374.713 699.464C371.216 698.371 368.016 696.831 365.152 694.859C359.146 690.722 354.564 684.651 351.533 676.813C348.274 668.391 346.778 657.835 347.084 645.439C347.699 620.524 354.639 592.625 361.35 565.644C362.668 560.346 364.03 554.868 365.313 549.54C374.047 513.225 379.325 480.674 381.451 450.026C385.691 388.89 378.572 333.357 360.861 289.432C340.378 238.635 308.652 206.603 271.525 199.237C249.704 194.909 213.138 207.187 185.471 239.03C169.051 257.928 158.359 281.254 154.553 306.482L154.388 306.542C156.385 293.311 160.229 280.623 165.817 268.831C170.942 258.014 177.533 247.934 185.407 238.872C197.93 224.458 213.287 213.013 229.816 205.774C245.09 199.086 259.935 196.68 271.619 198.998C291.048 202.854 308.954 213.373 324.839 230.263C339.238 245.576 351.411 265.421 361.019 289.25C378.741 333.2 385.865 388.763 381.622 449.936C379.493 480.604 374.212 513.173 365.474 549.508C364.193 554.836 362.829 560.317 361.511 565.614C354.803 592.576 347.869 620.455 347.255 645.333C346.66 669.396 352.724 685.982 365.277 694.627C382.661 706.601 411.96 702.083 443.651 682.538C489.32 654.375 533.258 606.337 575.75 559.883C583.198 551.74 590.899 543.32 598.423 535.217C617.96 514.176 643.818 487.079 670.583 464.104C697.941 440.622 722.326 424.708 745.133 415.452C759.092 409.786 772.42 407.195 784.746 407.752C796.13 408.264 807.031 411.483 817.146 417.314C834.497 427.318 850.158 445.152 865.026 471.832C894.299 524.369 920.01 585.067 941.442 652.243C961.813 716.092 978.509 786.354 991.067 861.073L990.9 861.218C964.869 706.329 922.469 575.386 864.876 472.024C832.337 413.628 794.279 395.723 745.104 415.679C695.076 435.98 645.069 485.208 598.48 535.381C590.958 543.482 583.257 551.902 575.809 560.045C533.304 606.516 489.352 654.569 443.652 682.751C428.883 691.859 414.063 697.931 400.794 700.31C393.785 701.566 387.261 701.781 381.403 700.949C379.065 700.625 376.834 700.127 374.713 699.464Z" fill="#FFE492"/>
<path d="M383.774 687.407C374.854 684.619 367.856 679.095 362.966 670.982C357.514 661.935 354.718 649.684 354.656 634.57C354.651 633.232 354.667 631.854 354.705 630.473C355.374 605.684 361.968 578.068 368.347 551.36C369.635 545.963 370.969 540.38 372.221 534.95C379.679 502.617 384.42 473.547 386.713 446.083C386.995 442.702 387.243 439.303 387.447 435.98C391.199 375.228 383.602 320.221 365.479 276.906C344.439 226.693 312.253 195.431 274.847 188.882C252.971 185.082 216.385 197.742 188.783 229.294C172.255 248.187 161.294 271.482 157.081 296.66L156.916 296.715C159.124 283.518 163.142 270.858 168.857 259.09C174.106 248.282 180.788 238.204 188.719 229.136C201.288 214.767 216.624 203.298 233.067 195.968C248.265 189.193 263.134 186.592 274.936 188.644C294.522 192.074 312.628 202.184 328.751 218.692C343.355 233.646 355.764 253.172 365.633 276.726C383.767 320.065 391.367 375.105 387.615 435.891C387.409 439.216 387.161 442.619 386.878 446.002C384.584 473.484 379.841 502.569 372.379 534.919C371.127 540.35 369.794 545.932 368.505 551.333C362.131 578.023 355.541 605.619 354.873 630.374C354.836 631.75 354.82 633.128 354.824 634.463C354.95 665.703 366.555 682.025 383.816 687.42C383.91 687.45 384.004 687.479 384.098 687.509C383.991 687.472 383.882 687.441 383.774 687.407ZM387.526 688.394C404.186 691.983 425.333 686.48 446.364 675.034C491.791 650.203 536.649 603.941 580.032 559.204C581.819 557.359 583.604 555.519 585.389 553.68C589.308 549.641 593.952 544.862 598.661 540.053C619.785 518.486 644.852 493.545 670.596 472.091C697.989 449.263 722.3 433.568 744.917 424.106C758.81 418.303 772.139 415.321 784.532 415.245C796.014 415.174 807.075 417.597 817.404 422.445C835.248 430.823 851.555 446.532 867.256 470.474C882.574 493.791 894.329 514.907 904.248 536.926C918.289 568.144 929.636 602.601 938.884 632.19C960.317 701.136 977.708 777.254 990.573 858.431L990.407 858.573C977.543 777.408 960.155 701.296 938.725 632.358C929.478 602.772 918.134 568.321 904.094 537.112C894.177 515.098 882.426 493.989 867.109 470.678C832.907 418.522 794.07 403.795 744.889 424.336C693.829 445.692 642.662 495.354 598.71 540.227C593.999 545.036 589.359 549.814 585.438 553.855C583.654 555.692 581.868 557.534 580.081 559.378C536.685 604.13 491.81 650.408 446.35 675.258C435.094 681.384 424.101 685.609 413.678 687.813C403.977 689.86 395.199 690.054 387.526 688.394Z" fill="#FFE492"/>
<path d="M393.062 675.762C391.989 675.427 390.94 675.053 389.917 674.641C381.298 671.173 374.572 665.054 369.929 656.449C364.852 647.038 362.274 634.645 362.27 619.611C362.272 618.272 362.292 616.893 362.332 615.513C363.054 590.862 369.305 563.535 375.35 537.111C376.61 531.603 377.912 525.907 379.133 520.366C386.266 488.049 390.735 459.138 392.793 431.981C393.047 428.623 393.267 425.244 393.446 421.94C396.707 361.574 388.632 307.093 370.096 264.388C348.502 214.76 315.857 184.266 278.171 178.533C256.933 175.352 220.947 186.826 192.129 219.531C175.479 238.426 164.234 261.704 159.611 286.847L159.448 286.895C161.87 273.722 166.064 261.085 171.912 249.335C177.289 238.527 184.07 228.448 192.066 219.373C204.678 205.061 219.986 193.578 236.339 186.161C251.457 179.305 266.344 176.513 278.259 178.297C298.002 181.303 316.31 191.003 332.669 207.128C347.478 221.726 360.122 240.929 370.251 264.208C388.796 306.94 396.875 361.451 393.613 421.851C393.433 425.158 393.214 428.537 392.958 431.9C390.899 459.072 386.427 488 379.289 520.335C378.067 525.878 376.765 531.575 375.505 537.082C369.464 563.492 363.218 590.799 362.496 615.42C362.456 616.801 362.434 618.176 362.435 619.511C362.449 680.598 405.965 687.643 449.083 667.529C494.485 646.13 540.615 601.396 585.226 558.135L585.684 557.691C590.007 553.497 594.476 549.162 598.906 544.888C645.653 499.796 695.419 453.994 744.711 432.759C758.542 426.816 771.872 423.444 784.329 422.737C795.916 422.079 807.135 423.707 817.673 427.575C836.047 434.319 852.998 447.906 869.496 469.114C886.857 491.35 898.86 510.552 908.415 531.379C922.01 561.098 932.332 596.509 941.439 627.752C961.587 697.613 977.956 774.334 990.092 855.779L989.926 855.919C977.791 774.482 961.424 697.769 941.279 627.914C932.173 596.677 921.852 561.272 908.261 531.562C898.711 510.742 886.711 491.546 869.357 469.318C833.595 423.347 793.981 411.801 744.686 432.982C695.426 454.204 645.681 499.985 598.951 545.061C594.521 549.336 590.051 553.673 585.73 557.864L585.272 558.308C563.04 579.866 540.053 602.158 517.313 621.38C491.759 642.981 469.434 658.148 449.062 667.749C427.804 677.664 408.088 680.459 393.062 675.762Z" fill="#FFE492"/>
<path d="M989.437 853.26C978.03 771.55 962.684 694.237 943.825 623.469C943.018 620.489 942.213 617.497 941.405 614.495C933.187 583.955 924.689 552.377 912.422 526.01C900.497 500.484 885.093 482.34 871.596 467.958C834.405 428.106 794.012 419.74 744.476 441.625C693.582 464.192 641.241 511.711 599.184 549.896C596.66 552.187 594.136 554.485 591.609 556.784C589.744 558.482 587.877 560.179 586.011 561.874C562.053 583.642 540.433 603.041 518.452 620.038C493.34 639.454 471.528 652.604 451.763 660.241C433.24 667.399 416.098 668.891 402.566 664.663C400.101 663.893 397.757 662.934 395.545 661.783C387.466 657.58 381.184 650.903 376.874 641.937C372.171 632.154 369.815 619.609 369.869 604.649C369.876 603.309 369.901 601.929 369.945 600.547C370.72 576.044 376.626 549.021 382.339 522.889C383.569 517.261 384.842 511.438 386.033 505.773C392.84 473.463 397.036 444.71 398.863 417.868C399.091 414.529 399.282 411.173 399.434 407.889C402.204 347.909 393.653 293.955 374.707 251.858C352.558 202.813 319.453 173.094 281.49 168.17C255.502 164.886 220.142 181.973 195.502 209.719C178.715 228.622 167.179 251.894 162.138 277.018L161.975 277.06C164.615 263.905 168.989 251.282 174.977 239.541C180.489 228.73 187.374 218.643 195.44 209.559C208.091 195.312 223.37 183.82 239.624 176.327C254.657 169.396 269.556 166.414 281.576 167.933C301.479 170.513 319.984 179.804 336.581 195.546C351.593 209.788 364.474 228.672 374.863 251.673C393.822 293.795 402.376 347.78 399.604 407.796C399.453 411.082 399.26 414.441 399.033 417.78C397.206 444.637 393.006 473.406 386.196 505.732C385.005 511.399 383.733 517.219 382.502 522.85C376.792 548.966 370.89 575.972 370.115 600.447C370.072 601.826 370.047 603.203 370.04 604.541C369.807 668.889 413.937 674.638 451.797 660.01C496.967 642.555 544.254 599.594 585.976 561.687C587.843 559.99 589.708 558.292 591.574 556.597C594.1 554.298 596.625 552.001 599.149 549.709C623.155 527.914 646.688 506.797 670.64 488.047C698.184 466.484 722.345 451.226 744.503 441.4C758.276 435.314 771.605 431.551 784.121 430.219C795.819 428.971 807.196 429.806 817.938 432.696C836.882 437.794 854.48 449.26 871.733 467.746C885.233 482.134 900.645 500.286 912.575 525.827C924.849 552.204 933.348 583.791 941.568 614.336C942.375 617.337 943.181 620.33 943.988 623.31C962.849 694.084 978.197 771.406 989.605 853.123L989.437 853.26Z" fill="#FFE492"/>
<path d="M988.953 850.604C978.069 767.064 963.745 689.148 946.376 619.024C945.337 614.828 944.285 610.509 943.268 606.334C935.978 576.43 928.442 545.508 916.587 520.459C904.721 495.512 888.321 479.231 873.841 466.597C835.378 432.783 794.206 427.595 744.272 450.27C696.593 472.015 649.24 512.324 603.446 551.305L598.418 555.584C594.446 558.965 590.34 562.458 586.301 565.882C540.597 604.586 496.126 640.348 454.473 652.73C444.366 655.735 434.767 657.006 425.938 656.514C416.458 655.983 408.132 653.415 401.189 648.878C393.649 643.951 387.81 636.726 383.834 627.405C379.507 617.261 377.369 604.569 377.481 589.686C377.493 588.339 377.523 586.958 377.57 585.58C378.396 561.238 383.96 534.534 389.341 508.708C390.542 502.945 391.783 496.985 392.943 491.184C399.421 458.877 403.347 430.28 404.944 403.761C405.143 400.447 405.308 397.109 405.432 393.844C407.713 334.25 398.685 280.822 379.326 239.333C356.619 190.876 323.055 161.925 284.812 157.814C258.818 155.125 223.497 172.42 198.916 199.876C181.979 218.794 170.136 242.073 164.665 267.198L164.504 267.236C167.365 254.089 171.926 241.471 178.058 229.735C183.711 218.915 190.707 208.815 198.852 199.718C211.542 185.545 226.783 174.056 242.929 166.493C257.872 159.492 272.776 156.327 284.894 157.579C304.954 159.735 323.659 168.616 340.494 183.975C355.712 197.86 368.828 216.422 379.478 239.149C398.848 280.661 407.88 334.122 405.599 393.75C405.473 397.017 405.309 400.358 405.11 403.672C403.513 430.205 399.585 458.816 393.103 491.14C391.942 496.942 390.7 502.905 389.5 508.667C384.122 534.478 378.56 561.17 377.736 585.483C377.69 586.856 377.661 588.235 377.647 589.581C377.172 652.958 417.041 663.638 454.513 652.498C496.132 640.127 540.585 604.377 586.269 565.692C590.308 562.268 594.414 558.774 598.386 555.393L603.414 551.114C625.893 531.981 649.136 512.193 672.784 494.42C699.567 474.29 722.957 459.775 744.293 450.043C758.016 443.811 771.347 439.658 783.914 437.701C795.73 435.86 807.266 435.899 818.203 437.816C837.772 441.246 856.011 450.59 873.97 466.377C888.456 479.018 904.866 495.305 916.738 520.272C928.6 545.332 936.139 576.263 943.43 606.175C944.447 610.35 945.5 614.667 946.538 618.864C963.909 688.995 978.235 766.917 989.119 850.464L988.953 850.604Z" fill="#FFE492"/>
<path d="M988.466 847.947C978.274 763.733 964.97 685.216 948.924 614.58C947.718 609.272 946.509 603.766 945.34 598.443C938.896 569.101 932.232 538.76 920.747 514.911C908.837 490.315 891.486 475.999 876.082 465.239C836.542 437.352 794.591 435.344 744.062 458.917C699.911 479.618 655.87 514.747 613.278 548.718C608.797 552.293 604.162 555.989 599.657 559.565C594.367 563.764 590.334 566.951 586.585 569.894C566.508 585.645 542.931 603.637 520.28 617.652C496.277 632.502 475.636 641.521 457.177 645.225C447.47 647.172 438.333 647.458 430.019 646.071C421.091 644.583 413.288 641.186 406.828 635.974C399.828 630.328 394.433 622.556 390.788 612.876C386.835 602.379 384.918 589.541 385.088 574.723C385.106 573.381 385.139 571.998 385.19 570.616C386.065 546.454 391.288 520.082 396.338 494.578C397.509 488.663 398.721 482.547 399.85 476.592C405.999 444.278 409.652 415.841 411.019 389.651C411.191 386.358 411.328 383.043 411.426 379.796C413.216 320.589 403.711 267.687 383.941 226.805C360.679 178.936 326.653 150.757 288.133 147.456C266.174 145.674 231.138 158.135 202.368 189.989C185.264 208.928 173.099 232.23 167.193 257.373L167.034 257.403C170.122 244.256 174.875 231.637 181.161 219.895C186.962 209.058 194.076 198.942 202.309 189.827C215.033 175.739 230.23 164.263 246.26 156.637C261.111 149.572 276.01 146.229 288.217 147.219C308.434 148.951 327.34 157.421 344.41 172.396C359.832 185.925 373.184 204.167 384.093 226.619C403.875 267.523 413.385 320.456 411.594 379.697C411.496 382.944 411.359 386.264 411.186 389.559C409.817 415.762 406.162 444.215 400.012 476.544C398.883 482.502 397.672 488.618 396.5 494.533C391.452 520.024 386.233 546.382 385.358 570.517C385.309 571.897 385.275 573.277 385.258 574.617C384.647 627.842 411.554 654.149 457.232 644.984C498.599 636.687 543.807 603.238 586.566 569.691C590.316 566.749 594.347 563.561 599.637 559.362C604.142 555.786 608.776 552.09 613.258 548.515C634.226 531.791 655.907 514.498 677.845 498.816C702.653 481.081 724.322 467.955 744.087 458.689C757.768 452.306 771.099 447.762 783.709 445.186C795.654 442.745 807.349 441.99 818.47 442.939C838.717 444.669 857.603 451.889 876.207 465.01C891.618 475.777 908.983 490.1 920.903 514.718C932.394 538.582 939.059 568.931 945.506 598.282C946.675 603.605 947.884 609.111 949.09 614.419C965.135 685.063 978.441 763.586 988.636 847.806L988.466 847.947Z" fill="#FFE492"/>
<path d="M987.976 845.291C978.478 760.398 966.197 681.278 951.47 610.135C950.216 604.083 948.978 597.755 947.78 591.636C942.071 562.486 936.169 532.347 924.907 509.359C912.888 484.979 894.614 472.687 878.323 463.878C838.502 442.08 794.515 443.285 743.851 467.561C703.456 487.019 662.988 517.292 623.851 546.57C615.946 552.483 607.772 558.599 599.888 564.399C595.064 567.95 590.805 571.06 586.865 573.906C568.552 587.124 544.536 603.906 521.185 616.456C497.723 629.064 477.668 636.02 459.876 637.717C440.469 639.57 424.073 634.503 412.459 623.067C406.003 616.708 401.049 608.391 397.735 598.347C394.158 587.501 392.461 574.519 392.687 559.765C392.71 558.422 392.749 557.038 392.803 555.657C393.726 531.696 398.608 505.677 403.328 480.517C404.47 474.43 405.652 468.138 406.749 462.008C412.564 429.68 415.947 401.397 417.088 375.549C417.232 372.276 417.342 368.982 417.412 365.756C418.713 306.935 408.732 254.557 388.548 214.288C364.731 167.008 330.246 139.6 291.447 137.107C265.099 135.543 230.702 152.809 205.856 180.067C188.567 199.037 176.069 222.375 169.714 247.558L169.557 247.581C172.877 234.421 177.829 221.79 184.273 210.039C190.229 199.179 197.472 189.039 205.798 179.903C218.552 165.909 233.699 154.455 249.602 146.779C264.353 139.659 279.244 136.137 291.529 136.867C311.904 138.175 331.01 146.237 348.318 160.827C363.944 174 377.532 191.922 388.701 214.096C408.896 254.39 418.883 306.797 417.582 365.655C417.511 368.881 417.401 372.177 417.257 375.452C416.113 401.317 412.73 429.612 406.913 461.955C405.815 468.085 404.633 474.38 403.491 480.467C398.773 505.614 393.894 531.621 392.971 555.558C392.917 556.939 392.879 558.318 392.856 559.661C392.04 612.476 417.118 641.566 459.941 637.48C498.981 633.753 544.009 604.624 586.851 573.703C590.79 570.856 595.049 567.748 599.872 564.197C607.755 558.397 615.929 552.283 623.833 546.37C662.978 517.087 703.454 486.806 743.868 467.341C757.522 460.798 770.853 455.866 783.494 452.677C795.583 449.63 807.436 448.08 818.725 448.07C839.718 448.054 859.249 453.152 878.434 463.652C894.736 472.467 913.026 484.767 925.057 509.175C936.327 532.178 942.232 562.329 947.942 591.49C949.141 597.609 950.379 603.935 951.633 609.986C966.361 681.135 978.645 760.261 988.143 845.159L987.976 845.291Z" fill="#FFE492"/>
<path d="M987.491 842.635C978.696 757.058 967.434 677.34 954.019 605.692C952.787 599.108 951.589 592.17 950.432 585.46C945.398 556.291 940.194 526.127 929.069 503.81C916.9 479.558 897.722 469.328 880.565 462.519C840.227 446.251 795.439 450.727 743.644 476.207C707.268 494.2 670.678 519.924 635.293 544.8C623.126 553.355 611.633 561.435 600.124 569.233C595.442 572.408 591.198 575.25 587.152 577.917C561.049 595.104 540.378 606.968 522.099 615.252C499.166 625.647 479.698 630.54 462.583 630.208C455.943 630.079 449.695 629.096 443.921 627.291C433.686 624.091 424.935 618.314 418.1 610.154C405.729 595.385 399.74 573.397 400.297 544.801C400.326 543.446 400.369 542.064 400.426 540.689C401.396 516.953 405.936 491.316 410.328 466.521C411.441 460.239 412.592 453.746 413.659 447.415C419.139 415.062 422.248 386.939 423.167 361.438C423.284 358.186 423.366 354.913 423.41 351.707C424.22 293.273 413.762 241.421 393.167 201.759C368.793 155.071 333.849 128.431 294.772 126.748C268.077 125.731 234.567 142.743 209.404 170.088C191.912 189.095 179.065 212.486 172.247 237.733L172.09 237.75C175.651 224.567 180.808 211.915 187.42 200.145C193.541 189.251 200.917 179.084 209.347 169.924C222.126 156.037 237.213 144.617 252.981 136.898C267.628 129.727 282.497 126.039 294.852 126.509C315.384 127.393 334.691 135.045 352.235 149.251C368.065 162.071 381.887 179.673 393.32 201.568C413.926 241.254 424.39 293.135 423.58 351.604C423.536 354.812 423.454 358.085 423.337 361.339C422.418 386.854 419.307 414.992 413.825 447.358C412.757 453.688 411.607 460.185 410.493 466.466C406.103 491.249 401.564 516.876 400.596 540.59C400.54 541.963 400.496 543.345 400.467 544.697C399.425 598.101 422.094 629.181 462.66 629.967C501.277 630.714 547.259 603.967 587.148 577.703C591.194 575.036 595.436 572.197 600.119 569.022C611.626 561.223 623.118 553.145 635.285 544.59C670.676 519.708 707.273 493.98 743.663 475.982C757.308 469.269 770.64 463.946 783.291 460.16C795.542 456.494 807.555 454.148 818.993 453.191C840.806 451.368 860.982 454.342 880.673 462.284C897.844 469.098 917.039 479.338 929.222 503.618C940.357 525.952 945.563 556.129 950.598 585.31C951.756 592.02 952.953 598.957 954.185 605.539C967.6 677.192 978.862 756.918 987.658 842.501L987.491 842.635Z" fill="#FFE492"/>
<path d="M987.011 839.98C978.808 752.499 968.853 674.41 956.575 601.248C955.403 594.268 954.342 587.182 953.217 579.679C948.824 550.351 944.28 520.027 933.237 498.262C920.816 473.939 899.766 465.658 882.814 461.161C842.357 450.183 796.767 457.934 743.441 484.858C711.398 501.123 679.049 522.573 647.764 543.318C631.322 554.221 615.793 564.516 600.363 574.072C595.782 576.911 591.554 579.481 587.441 581.93C561.958 597.081 541.488 607.286 523.016 614.048C500.595 622.255 481.714 625.085 465.293 622.7C456.856 621.474 449.109 618.787 442.266 614.712C435.021 610.398 428.79 604.518 423.744 597.239C412.562 581.103 407.234 558.429 407.909 529.843C407.944 528.487 407.992 527.104 408.051 525.73C409.064 502.254 413.266 477.028 417.328 452.632C418.412 446.123 419.533 439.391 420.571 432.831C425.711 400.446 428.55 372.48 429.247 347.335C429.336 344.104 429.39 340.851 429.409 337.667C429.73 279.62 418.795 228.294 397.788 189.24C378.352 153.303 352.545 129.655 323.468 120.566C315.248 117.996 306.773 116.591 298.1 116.397C271.492 115.937 238.09 133.08 213 160.072C195.291 179.125 182.074 202.586 174.779 227.918L174.624 227.928C178.43 214.709 183.802 202.026 190.589 190.231C196.881 179.297 204.402 169.094 212.943 159.905C225.742 146.135 240.763 134.761 256.385 127.01C271.131 119.692 285.583 115.94 298.174 116.16C318.864 116.62 338.371 123.863 356.152 137.684C372.188 150.145 386.248 167.425 397.939 189.045C418.958 228.121 429.9 279.476 429.58 337.559C429.563 340.743 429.508 343.998 429.419 347.232C428.72 372.39 425.881 400.369 420.738 432.769C419.701 439.33 418.581 446.061 417.496 452.572C413.435 476.958 409.235 502.175 408.222 525.632C408.164 527.004 408.116 528.387 408.081 529.74C406.819 583.194 427.705 616.987 465.384 622.46C503.512 627.997 550.646 603.59 587.45 581.71C591.563 579.261 595.789 576.69 600.37 573.853C615.796 564.302 631.325 554.004 647.764 543.103C679.053 522.356 711.407 500.9 743.462 484.63C770.917 470.769 795.711 462.163 819.266 458.319C841.982 454.612 862.803 455.464 882.917 460.922C894.419 463.973 903.277 467.688 910.794 472.611C920.5 478.968 927.892 487.295 933.394 498.069C944.447 519.853 948.992 550.194 953.388 579.536C954.511 587.038 955.574 594.122 956.744 601.102C969.022 674.266 978.978 752.361 987.182 839.847L987.011 839.98Z" fill="#FFE492"/>
<path d="M986.519 837.321C979.038 749.136 970.075 670.463 959.119 596.801C958.036 589.513 957.083 582.057 956.075 574.163C952.297 544.586 948.392 513.999 937.395 492.708C924.771 468.418 902.792 462.36 885.055 459.795C845.006 453.786 798.614 464.811 743.23 493.497C715.9 507.727 688.221 525.136 661.451 541.974C640.29 555.283 620.304 567.855 600.597 578.897C596.142 581.396 591.809 583.763 587.724 585.931C563.107 598.981 542.239 607.777 523.928 612.825C502.003 618.869 483.707 619.641 467.997 615.182C460.004 612.912 452.718 609.231 446.35 604.238C439.674 599.004 433.966 592.299 429.385 584.306C419.387 566.861 414.719 543.5 415.514 514.871C415.554 513.52 415.606 512.135 415.67 510.754C416.723 487.582 420.585 462.809 424.319 438.853C425.376 432.075 426.469 425.064 427.476 418.23C432.275 385.803 434.841 357.996 435.322 333.217C435.383 330.006 435.41 326.775 435.402 323.611C435.232 265.95 423.82 215.15 402.402 176.704C376.915 131.201 341.05 106.103 301.418 106.032C274.926 106.111 241.65 123.365 216.644 149.986C198.696 169.095 185.093 192.643 177.303 218.088L177.151 218.091C181.211 204.828 186.805 192.102 193.779 180.27C200.253 169.287 207.926 159.04 216.589 149.818C229.399 136.179 244.345 124.862 259.811 117.088C274.438 109.736 288.851 105.83 301.494 105.792C322.342 105.831 342.049 112.662 360.066 126.099C376.304 138.209 390.598 155.169 402.552 176.509C423.985 214.975 435.402 265.806 435.57 323.502C435.58 326.665 435.553 329.9 435.491 333.113C435.011 357.906 432.443 385.725 427.642 418.165C426.636 424.999 425.542 432.01 424.486 438.791C420.753 462.737 416.892 487.499 415.84 510.656C415.777 512.034 415.725 513.419 415.684 514.768C414.17 569.342 432.782 604.923 468.097 614.942C496.75 623.075 534.767 613.783 587.738 585.704C591.823 583.536 596.153 581.171 600.608 578.672C620.309 567.631 640.294 555.063 661.452 541.753C688.226 524.914 715.91 507.501 743.247 493.268C771.171 478.804 796.121 469.048 819.524 463.437C843.234 457.754 864.699 456.481 885.146 459.55C902.903 462.116 924.907 468.184 937.55 492.512C948.558 513.827 952.465 544.428 956.246 574.019C957.253 581.913 958.206 589.367 959.289 596.652C970.246 670.317 979.209 748.995 986.689 837.186L986.519 837.321Z" fill="#FFE492"/>
<path d="M986.036 834.666C979.282 745.774 971.313 666.514 961.672 592.359C960.694 584.83 959.868 577.068 958.996 568.85C955.821 538.954 952.537 508.04 941.562 487.16C928.718 462.875 905.818 459.052 887.303 458.435C847.838 456.931 801.994 470.82 743.026 502.144C720.878 513.967 698.383 527.499 676.63 540.586C650.209 556.48 625.253 571.494 600.835 583.732C596.435 585.94 592.119 588.031 588.012 589.942C563.83 601.187 543.169 608.275 524.848 611.607C514.587 613.474 504.962 614.142 496.24 613.593C486.938 613.005 478.347 611.013 470.705 607.673C455.201 600.894 443.199 588.683 435.033 571.382C426.214 552.697 422.207 528.652 423.127 499.911C423.174 498.551 423.231 497.165 423.294 495.792C424.384 472.976 427.906 448.714 431.312 425.254C432.342 418.151 433.409 410.807 434.386 403.643C438.84 371.163 441.134 343.514 441.401 319.112C441.436 315.919 441.434 312.708 441.399 309.568C440.74 252.291 428.852 202.017 407.02 164.183C380.977 119.275 344.654 94.9474 304.742 95.6799C261.924 96.6576 201.994 139.981 179.834 208.27L179.684 208.266C185.227 191.183 193.177 175.132 203.314 160.554C212.571 147.24 223.465 135.392 235.692 125.344C247.061 116 259.057 108.614 271.345 103.391C283.033 98.4235 294.608 95.6725 304.815 95.4395C325.821 95.0546 345.728 101.477 363.981 114.531C380.424 126.287 394.954 142.927 407.167 163.99C429.01 201.849 440.906 252.151 441.566 309.461C441.602 312.603 441.603 315.815 441.569 319.01C441.302 343.423 439.006 371.088 434.551 403.58C433.574 410.745 432.507 418.089 431.476 425.193C428.072 448.647 424.552 472.898 423.462 495.701C423.397 497.074 423.339 498.459 423.293 499.816C421.527 555.052 438.405 593.272 470.813 607.443C498.251 619.437 536.593 613.641 588.032 589.72C592.138 587.808 596.451 585.719 600.852 583.511C625.264 571.277 650.216 556.264 676.633 540.371C698.389 527.283 720.885 513.748 743.037 501.924C802.03 470.586 847.894 456.693 887.381 458.196C899.822 458.611 909.454 460.511 917.693 464.179C928.226 468.867 936.082 476.321 941.712 486.967C952.701 507.87 955.986 538.803 959.162 568.716C960.036 576.932 960.86 584.694 961.838 592.219C971.48 666.38 979.449 745.643 986.202 834.54L986.036 834.666Z" fill="#FFE492"/>
<path d="M985.553 832.011C979.534 742.403 972.556 662.559 964.225 587.915C963.363 580.192 962.678 572.17 961.954 563.674C959.372 533.41 956.702 502.114 945.728 481.609C932.502 457.035 907.332 455.836 889.551 457.072C841.376 460.227 788.344 485.996 742.822 510.792C726.439 519.754 709.768 529.461 693.644 538.847C661.301 557.677 630.752 575.463 601.075 588.568C596.71 590.497 592.413 592.309 588.301 593.956C564.486 603.469 544.032 608.845 525.773 610.389C505.073 612.141 487.459 608.702 473.416 600.165C458.99 591.395 447.977 577.361 440.685 558.454C433.036 538.624 429.69 513.896 430.738 484.953C430.791 483.595 430.851 482.207 430.919 480.831C432.039 458.45 435.221 434.778 438.298 411.884C439.307 404.381 440.348 396.626 441.298 389.057C445.461 356.061 447.425 329.355 447.482 305.007C447.489 301.836 447.461 298.647 447.398 295.525C446.246 238.637 433.88 188.889 411.637 151.66C385.037 107.348 348.255 83.7893 308.066 85.3255C264.729 87.1564 205.863 129.97 182.364 198.452L182.217 198.44C188.047 181.45 196.183 165.476 206.398 150.962C215.759 137.665 226.689 125.812 238.886 115.738C250.26 106.343 262.246 98.8716 274.516 93.5281C286.199 88.4397 297.825 85.5215 308.138 85.085C329.303 84.2767 349.409 90.2907 367.899 102.958C384.545 114.362 399.311 130.682 411.786 151.464C434.043 188.713 446.415 238.49 447.565 295.413C447.627 298.537 447.655 301.728 447.649 304.9C447.593 329.259 445.626 355.979 441.462 388.988C440.512 396.557 439.47 404.315 438.461 411.818C435.386 434.704 432.206 458.369 431.085 480.739C431.016 482.116 430.956 483.5 430.903 484.858C428.867 541.12 444.006 581.989 473.532 599.939C500.013 616.037 537.564 614.004 588.331 593.726C592.441 592.081 596.736 590.272 601.099 588.342C630.768 575.239 661.312 557.457 693.651 538.628C709.774 529.242 726.448 519.533 742.833 510.569C773.443 493.898 797.983 482.182 820.056 473.699C846.04 463.713 868.794 458.197 889.619 456.833C902.336 455.949 912.649 456.972 921.149 459.964C932.092 463.816 940.182 470.832 945.878 481.417C956.867 501.948 959.538 533.263 962.121 563.545C962.846 572.039 963.53 580.06 964.393 587.779C972.725 662.426 979.701 742.274 985.722 831.886L985.553 832.011Z" fill="#FFE492"/>
<path d="M985.064 829.352C979.783 739.026 973.799 658.597 966.771 583.467C966.034 575.589 965.498 567.342 964.931 558.611C962.935 527.938 960.873 496.22 949.888 476.057C936.413 451.453 910.28 452.66 891.793 455.709C846.208 463.073 797.26 488.927 742.612 519.435C732.743 524.966 722.695 530.717 712.975 536.281C675.595 557.675 636.945 579.797 601.307 593.4C596.977 595.055 592.695 596.59 588.582 597.963C565.402 605.688 544.578 609.456 526.69 609.162C506.425 608.829 489.412 603.274 476.116 592.653C462.761 581.984 452.739 566.125 446.328 545.519C439.84 524.664 437.151 499.253 438.336 469.991C438.394 468.632 438.459 467.244 438.53 465.868C439.675 444.026 442.513 421.05 445.258 398.831C446.247 390.825 447.27 382.548 448.194 374.471C451.999 341.398 453.699 314.844 453.546 290.904C453.526 287.761 453.47 284.59 453.381 281.484C451.746 224.976 438.905 175.755 416.247 139.135C389.091 95.4208 351.849 72.6327 311.381 74.9694C269.069 77.5593 210.357 118.273 184.885 188.629L184.741 188.61C190.859 171.71 199.181 155.815 209.474 141.366C218.938 128.082 229.905 116.228 242.069 106.128C264.512 87.4963 289.801 76.0519 311.451 74.7281C332.772 73.4982 353.079 79.1018 371.807 91.3841C388.656 102.436 403.657 118.434 416.394 138.936C439.064 175.576 451.912 224.828 453.552 281.365C453.642 284.474 453.698 287.644 453.718 290.79C453.87 314.743 452.17 341.308 448.362 374.394C447.437 382.473 446.416 390.751 445.427 398.757C442.683 420.97 439.845 443.941 438.7 465.772C438.628 467.148 438.563 468.534 438.506 469.893C436.135 528.437 449.184 570.809 476.241 592.429C501.296 612.447 539.104 614.231 588.618 597.73C592.729 596.357 597.007 594.823 601.335 593.17C636.961 579.571 675.606 557.453 712.979 536.061C722.698 530.497 732.747 524.747 742.617 519.216C766.539 505.861 794.243 490.627 820.313 478.826C847.582 466.483 870.98 458.844 891.846 455.473C905.002 453.304 915.715 453.394 924.594 455.749C935.792 458.718 944.349 465.487 950.033 475.866C954.954 484.898 958.528 497.199 960.958 513.472C963.104 527.842 964.116 543.422 965.096 558.487C965.663 567.216 966.199 575.462 966.936 583.338C973.964 658.471 979.948 738.902 985.229 829.231L985.064 829.352Z" fill="#FFE492"/>
<path d="M984.582 826.697C980.045 735.646 975.054 654.632 969.324 579.025C968.716 571.02 968.335 562.577 967.931 553.642C966.521 522.527 965.065 490.353 954.054 470.511C943.746 452.012 924.115 446.726 894.039 454.35C852.04 464.893 807.513 490.569 760.37 517.756C754.499 521.141 748.431 524.641 742.406 528.087C740.046 529.441 737.682 530.8 735.32 532.156C690.459 557.924 644.071 584.571 601.547 598.238C597.247 599.621 592.983 600.88 588.872 601.977C565.951 608.085 545.343 610.09 527.622 607.938C507.78 605.525 491.362 597.857 478.83 585.146C466.531 572.669 457.5 554.986 451.989 532.588C446.648 510.877 444.617 484.786 445.952 455.034C446.015 453.674 446.085 452.285 446.16 450.907C447.317 429.766 449.811 407.644 452.221 386.251C453.198 377.588 454.207 368.628 455.111 359.883C458.552 326.72 459.991 300.318 459.633 276.798C459.585 273.672 459.502 270.526 459.386 267.44C457.256 211.319 443.938 162.622 420.867 126.612C393.156 83.4978 355.454 61.4776 314.707 64.6152C272.83 67.955 213.986 109.111 187.418 178.811L187.275 178.787C193.684 161.975 202.19 146.159 212.559 131.779C222.127 118.509 233.13 106.648 245.262 96.5268C267.671 77.8315 293.006 66.1146 314.774 64.3782C336.254 62.7248 356.76 67.9177 375.724 79.8162C392.778 90.5122 408.016 106.191 421.014 126.414C444.097 162.445 457.424 211.17 459.552 267.319C459.669 270.405 459.753 273.557 459.801 276.683C460.158 300.216 458.721 326.627 455.278 359.802C454.375 368.548 453.363 377.509 452.388 386.173C449.977 407.561 447.485 429.678 446.329 450.811C446.254 452.189 446.183 453.575 446.12 454.935C443.406 515.43 454.763 560.378 478.965 584.925C502.855 609.156 539.85 614.812 588.92 601.737C593.028 600.639 597.29 599.382 601.587 598.001C644.096 584.34 690.476 557.699 735.328 531.933C737.692 530.575 740.054 529.218 742.415 527.864C748.439 524.417 754.507 520.918 760.377 517.535C807.53 490.343 852.069 464.66 894.088 454.113C907.675 450.667 918.786 449.826 928.054 451.535C939.654 453.675 948.451 459.996 954.204 470.316C959.135 479.203 962.593 491.518 964.773 507.966C966.695 522.477 967.409 538.26 968.101 553.522C968.506 562.455 968.887 570.895 969.494 578.898C975.225 654.507 980.216 735.524 984.751 826.577L984.582 826.697Z" fill="#FFE492"/>
<path d="M984.089 824.039C980.598 739.424 976.487 655.492 971.868 574.578C971.379 566.381 971.15 557.667 970.906 548.444C970.115 518.44 969.218 484.433 958.209 464.96C947.703 446.425 927.445 442.508 896.277 452.984C859.247 465.37 821.164 488.698 780.845 513.395C768.219 521.129 755.161 529.129 742.191 536.729C719.537 550.033 695.213 564.001 670.839 576.029C644.735 588.912 622.144 597.755 601.773 603.067C597.493 604.183 593.246 605.165 589.148 605.982C566.482 610.494 546.101 610.723 528.569 606.662C509.163 602.164 493.335 592.399 481.527 577.628C459.819 550.129 450.405 503.848 453.549 440.069C453.617 438.708 453.692 437.317 453.77 435.941C454.922 415.747 457.063 394.732 459.135 374.409C460.109 364.843 461.118 354.951 462.006 345.294C465.082 312.025 466.255 285.776 465.698 262.69C465.623 259.583 465.512 256.457 465.369 253.395C462.755 197.657 448.958 149.488 425.476 114.086C397.209 71.5689 359.047 50.3221 318.022 54.2579C275.548 58.4158 217.912 99.1602 189.938 168.989L189.798 168.956C196.499 152.23 205.192 136.494 215.635 122.182C225.31 108.924 236.349 97.0577 248.446 86.9151C259.842 77.3591 271.806 69.6284 284.003 63.9353C295.844 58.41 307.312 55.0726 318.087 54.0176C339.725 51.9431 360.432 56.7256 379.632 68.2382C396.889 78.5852 412.362 93.9411 425.621 113.884C449.118 149.306 462.922 197.505 465.539 253.27C465.682 256.335 465.794 259.464 465.869 262.571C466.425 285.67 465.252 311.929 462.176 345.209C461.287 354.868 460.278 364.76 459.303 374.328C457.232 394.65 455.09 415.661 453.939 435.847C453.859 437.226 453.786 438.614 453.717 439.975C450.576 503.704 459.98 549.948 481.668 577.42C504.106 605.488 541.291 615.283 589.203 605.743C593.298 604.926 597.544 603.946 601.82 602.832C647.365 590.957 696.141 563.558 742.197 536.51C755.166 528.91 768.221 520.912 780.847 513.178C821.175 488.476 859.267 465.142 896.314 452.751C927.531 442.259 947.827 446.187 958.358 464.764C963.288 473.486 966.621 485.783 968.549 502.354C970.248 516.966 970.667 532.911 971.075 548.329C971.319 557.553 971.548 566.264 972.037 574.455C976.657 655.372 980.768 739.304 984.258 823.921L984.089 824.039Z" fill="#FFE492"/>
<path d="M983.608 821.384C980.83 736.529 977.739 651.997 974.422 570.134C974.078 561.895 974.011 553.081 973.94 543.749C973.708 513.226 973.445 478.628 962.377 459.407C951.666 440.835 930.78 438.288 898.527 451.617C864.748 465.551 829.136 489.003 794.696 511.686C777.428 523.059 759.57 534.819 741.99 545.372C714.232 562.049 691.631 574.326 670.861 584.009C645.251 595.948 622.731 603.762 602.015 607.898C597.761 608.749 593.53 609.452 589.439 609.988C568.126 612.781 548.902 611.556 532.244 606.352C531.319 606.062 530.404 605.761 529.495 605.447C510.472 598.884 495.246 586.995 484.241 570.114C478.943 561.934 474.471 552.256 470.952 541.346C467.643 531.093 465.074 519.431 463.314 506.684C460.147 483.753 459.443 457.066 461.161 425.106C461.236 423.731 461.314 422.354 461.396 420.974C462.513 402.149 464.292 382.661 466.013 363.815C467.005 352.936 468.033 341.686 468.919 330.7C471.658 296.855 472.542 271.526 471.779 248.578C471.677 245.492 471.539 242.386 471.368 239.345C468.264 183.999 453.991 136.356 430.097 101.562C401.274 59.6442 362.653 39.168 321.349 43.9019C279.337 48.7599 221.578 89.9124 192.472 159.167L192.336 159.127C205.893 126.869 226.401 98.5764 251.643 77.3081C263.052 67.6948 275.006 59.8787 287.177 54.0711C299.019 48.4213 310.538 44.9191 321.414 43.6617C343.21 41.1632 364.117 45.5377 383.553 56.6643C401.013 66.6602 416.722 81.6963 430.242 101.357C454.15 136.174 468.431 183.846 471.538 239.225C471.708 242.269 471.847 245.377 471.95 248.464C472.711 271.425 471.828 296.762 469.087 330.62C468.2 341.608 467.173 352.859 466.18 363.737C464.46 382.581 462.681 402.066 461.564 420.886C461.482 422.266 461.403 423.642 461.329 425.015C457.677 492.931 465.219 540.328 484.387 569.915C511.001 610.74 556.238 614.113 589.501 609.752C593.589 609.215 597.817 608.513 602.068 607.663C649.715 598.149 701.875 569.261 741.993 545.157C759.57 534.609 777.426 522.848 794.692 511.477C829.14 488.791 864.759 465.331 898.555 451.391C912.987 445.427 924.894 442.716 934.955 443.107C947.361 443.588 956.638 449.008 962.524 459.216C967.481 467.824 970.706 480.178 972.386 496.982C973.865 511.789 973.989 527.982 974.107 543.644C974.178 552.973 974.245 561.785 974.59 570.019C977.907 651.882 980.997 736.414 983.777 821.27L983.608 821.384Z" fill="#FFE492"/>
<path d="M983.123 818.729L976.971 565.692C976.771 557.429 976.866 548.534 976.966 539.121C977.299 508.054 977.674 472.842 966.54 453.861C955.772 435.507 933.644 434.295 900.77 450.258C869.168 465.603 836.352 488.89 804.615 511.411C783.929 526.091 762.539 541.269 741.782 554.023C679.393 592.359 631.076 611.417 589.726 614.002C572.573 615.073 556.829 613.389 542.75 608.987C538.482 607.653 534.37 606.07 530.416 604.239C511.767 595.602 497.143 581.593 486.949 562.606C477.503 545.005 471.617 522.489 468.963 493.769C466.842 470.834 466.78 444.264 468.769 410.15C469.818 392.146 471.324 373.57 472.781 355.606C476.076 314.954 479.484 272.918 477.858 234.476C475.364 175.514 460.444 125.223 434.712 89.0378C405.334 47.723 366.253 28.0151 324.671 33.5472C284.412 38.9029 226.663 77.4238 194.999 149.348L194.866 149.301C209.019 117.153 229.756 88.9361 254.833 67.7018C277.508 48.5022 302.332 36.2879 324.734 33.3089C346.687 30.3893 367.795 34.3534 387.466 45.0936C405.131 54.7359 421.074 69.4546 434.856 88.8355C447.588 106.74 457.747 128.245 465.051 152.754C472.415 177.468 476.782 204.922 478.028 234.353C479.655 272.809 476.247 314.856 472.95 355.518C471.495 373.48 469.989 392.053 468.94 410.054C466.038 459.83 465.481 522.129 487.103 562.409C511.9 608.603 556.635 615.83 589.797 613.758C631.126 611.177 679.421 592.126 741.785 553.804C762.534 541.055 783.923 525.876 804.606 511.201C836.348 488.676 869.173 465.384 900.791 450.031C933.722 434.04 955.895 435.261 966.69 453.663C971.674 462.162 974.794 474.581 976.224 491.635C977.482 506.646 977.307 523.102 977.136 539.015C977.036 548.428 976.942 557.317 977.142 565.578L983.293 818.614L983.123 818.729Z" fill="#FFE492"/>
<path d="M989.618 801.455C990.315 731.754 989.68 674.819 987.62 622.283C986.627 596.764 985.26 571.524 983.556 547.263C983.041 539.925 982.729 532.193 982.399 524.006C981.57 503.429 980.713 482.153 976.475 465.237C974.206 456.141 971.237 449.208 967.4 444.042C955.667 428.08 933.358 429.234 901.091 447.477C884.4 456.899 867.941 468.413 854.042 478.434C839.328 489.042 824.143 501.066 809.457 512.694C788.349 529.408 766.523 546.691 745.033 560.676C731.942 569.218 719.248 576.54 707.3 582.438C683.397 594.239 659.56 602.668 636.454 607.492C622.209 610.4 608.589 611.706 595.975 611.373C585.109 611.075 574.721 609.617 565.1 607.037C550.698 603.179 537.834 596.704 526.867 587.786C515.206 578.303 505.608 565.985 498.34 551.171C491.86 537.962 487.072 522.384 483.703 503.545C477.416 468.462 476.901 430.008 477.155 400.426C477.305 385.834 477.693 371.026 478.068 356.706C479.149 315.466 480.169 276.514 476.082 240.255C472.677 210.848 465.808 184.242 455.662 161.17C447.866 143.44 437.824 127.793 425.816 114.664C422.955 111.539 419.966 108.526 416.933 105.714C403.871 93.6215 387.726 83.3588 368.948 75.2107C350.037 66.9489 332.135 63.3862 314.22 64.3253C304.103 64.831 293.467 67.2615 282.606 71.5459C244.26 86.6734 208.99 121.166 188.257 163.815L188.099 163.736C193.626 152.367 200.173 141.513 207.559 131.471C214.575 121.934 222.394 113.064 230.798 105.108C246.674 90.0811 264.603 78.3751 282.645 71.2578C293.524 66.9655 304.176 64.5322 314.309 64.0261C332.242 63.0873 350.158 66.652 369.085 74.9211C387.873 83.0726 404.026 93.343 417.097 105.444C420.133 108.259 423.123 111.273 425.986 114.401C438.004 127.539 448.054 143.198 455.856 160.944C466.009 184.031 472.884 210.66 476.288 240.086C480.378 276.366 479.357 315.329 478.277 356.58C477.901 370.9 477.514 385.705 477.363 400.295C477.109 429.863 477.624 468.299 483.909 503.359C487.274 522.179 492.056 537.742 498.529 550.935C512.753 579.926 535.19 598.703 565.22 606.743C574.834 609.32 585.214 610.776 596.072 611.073C608.677 611.404 622.287 610.1 636.52 607.194C659.613 602.373 683.435 593.95 707.323 582.156C719.263 576.263 731.95 568.944 745.029 560.409C766.507 546.431 788.329 529.152 809.43 512.443C824.118 500.814 839.306 488.785 854.027 478.174C867.933 468.147 884.399 456.63 901.102 447.202C915.469 439.079 928.053 434.299 938.51 432.993C951.354 431.388 961.135 435.02 967.578 443.786C971.426 448.969 974.403 455.921 976.679 465.038C980.923 481.979 981.781 503.269 982.61 523.859C982.94 532.043 983.252 539.776 983.767 547.109C985.472 571.372 986.84 596.615 987.832 622.139C989.891 674.681 990.526 731.621 989.829 801.327L989.618 801.455Z" fill="#FFE492"/>
<path d="M996.116 784.176C999.14 714.019 999.237 654.552 996.412 602.377C995.05 576.896 992.941 552.153 990.143 528.834C989.4 522.647 988.785 516.267 988.133 509.513C986.178 489.286 984.157 468.371 978.604 452.602C975.811 444.613 972.43 438.601 968.263 434.22C952.312 417.441 923.109 430.652 901.417 444.689C886.065 454.595 870.833 466.461 855.282 478.765C841.671 489.534 828.097 501.453 813.727 514.07C792.398 532.8 770.342 552.166 748.288 567.323C735.173 576.379 722.379 583.754 710.26 589.243C687.685 599.47 665.049 605.816 641.059 608.646C627.633 610.229 614.567 610.262 602.223 608.74C591.817 607.435 581.903 605.032 572.757 601.591C559.147 596.481 546.985 588.829 536.605 578.851C525.705 568.37 516.663 555.208 509.731 539.731C503.657 526.173 499.008 510.253 495.516 491.064C489.158 456.254 486.844 419.144 485.54 390.702C485.057 380.173 484.669 369.61 484.294 359.391C482.801 318.699 481.392 280.261 474.307 246.034C469.012 220.454 460.556 197.581 449.175 178.053C440.564 163.276 430.015 150.924 416.927 140.291C413.905 137.839 410.765 135.499 407.595 133.335C393.661 123.857 377.452 116.852 357.713 108.677C343.513 102.72 324.548 95.7923 303.769 95.0969C293.947 94.722 283.667 96.1896 273.213 99.4532C236.407 110.949 202.128 140.416 181.514 178.281L181.339 178.16C186.804 168.119 193.226 158.602 200.424 149.871C207.283 141.552 214.889 133.897 223.03 127.112C238.501 114.223 255.875 104.536 273.275 99.1029C283.748 95.8323 294.048 94.3627 303.886 94.7375C324.687 95.4314 343.665 102.366 357.875 108.326C377.621 116.504 393.834 123.51 407.778 132.994C410.95 135.161 414.093 137.501 417.119 139.955C430.219 150.6 440.778 162.963 449.399 177.756C460.791 197.304 469.255 220.196 474.556 245.801C481.646 280.053 483.057 318.502 484.55 359.21C484.925 369.426 485.313 379.989 485.796 390.516C487.101 418.948 489.414 456.044 495.768 490.836C499.254 510.005 503.899 525.908 509.965 539.45C523.596 569.882 544.777 590.67 572.917 601.237C582.056 604.673 591.96 607.076 602.356 608.377C614.688 609.898 627.743 609.867 641.156 608.284C665.127 605.457 687.743 599.116 710.299 588.899C722.403 583.416 735.18 576.051 748.28 567.004C770.316 551.86 792.362 532.502 813.682 513.782C828.058 501.159 841.634 489.238 855.254 478.463C870.812 466.152 886.05 454.282 901.418 444.365C915.48 435.264 927.985 429.466 938.589 427.124C951.447 424.284 961.5 426.563 968.471 433.894C972.651 438.293 976.045 444.325 978.846 452.338C984.409 468.136 986.431 489.07 988.387 509.313C989.04 516.064 989.657 522.443 990.398 528.627C993.197 551.954 995.305 576.705 996.669 602.194C999.492 654.382 999.397 713.86 996.371 784.032L996.116 784.176Z" fill="#FFE492"/>
<path d="M1002.61 766.898C1007.98 695.327 1008.83 635.001 1005.2 582.474C1003.47 557.032 1000.62 532.787 996.73 510.409C995.9 505.625 995.099 500.574 994.324 495.69C991.128 475.514 987.822 454.652 980.734 439.972C977.422 433.046 973.626 427.951 969.131 424.401C951.876 410.769 922.962 426.394 901.745 441.9C887.388 452.356 873.022 464.804 859.127 476.844L856.525 479.098C843.915 490.018 831.192 502.342 817.72 515.391C796.269 536.169 774.089 557.653 751.543 573.971C738.386 583.554 725.492 590.983 713.218 596.051C691.817 604.888 670.349 609.257 645.66 609.801C632.894 610.082 620.381 608.839 608.47 606.105C598.525 603.791 589.085 600.441 580.412 596.143C554.147 583.15 534.199 560.321 521.12 528.291C515.466 514.444 510.954 498.187 507.33 478.584C501.172 445.469 497.331 412.209 493.925 380.981C493.468 376.795 493.022 372.639 492.579 368.516C487.98 325.744 483.636 285.344 472.533 251.823C465.285 229.939 455.242 210.802 442.686 194.941C433.467 183.297 422.132 173.805 408.038 165.922C404.859 164.149 401.569 162.48 398.257 160.961C389.918 157.158 380.666 154.071 370.87 150.804C363.001 148.18 354.866 145.467 346.476 142.15C330.314 135.644 311.997 128.272 293.312 125.876C283.672 124.641 273.748 125.143 263.815 127.371C228.562 135.278 195.271 159.723 174.761 192.764L174.58 192.582C179.987 183.87 186.283 175.692 193.291 168.273C199.992 161.178 207.385 154.733 215.262 149.117C230.328 138.376 247.149 130.715 263.903 126.957C273.859 124.723 283.804 124.219 293.463 125.458C312.166 127.857 330.492 135.234 346.66 141.742C355.046 145.055 363.18 147.771 371.046 150.394C380.846 153.663 390.101 156.75 398.447 160.558C401.761 162.08 405.055 163.751 408.236 165.524C422.349 173.415 433.696 182.92 442.928 194.581C455.499 210.46 465.553 229.619 472.81 251.527C483.923 285.077 488.268 325.496 492.869 368.287C493.312 372.41 493.76 376.565 494.215 380.753C497.62 411.975 501.459 445.227 507.616 478.331C511.237 497.911 515.743 514.153 521.391 527.982C534.451 559.972 554.375 582.769 580.606 595.746C589.269 600.039 598.699 603.385 608.633 605.696C620.532 608.427 633.033 609.668 645.785 609.388C670.45 608.844 691.893 604.481 713.265 595.657C725.513 590.599 738.383 583.183 751.517 573.617C774.035 557.319 796.201 535.848 817.64 515.081C831.117 502.026 843.847 489.697 856.467 478.769L859.069 476.514C872.971 464.469 887.345 452.013 901.718 441.546C923.002 425.989 952.013 410.322 969.348 424.017C973.864 427.584 977.675 432.697 980.998 439.65C988.102 454.362 991.412 475.247 994.611 495.445C995.384 500.328 996.185 505.379 997.015 510.16C1000.9 532.55 1003.76 556.808 1005.49 582.264C1009.12 634.813 1008.27 695.16 1002.9 766.754L1002.61 766.898Z" fill="#FFE492"/>
<path d="M1009.11 749.616C1016.73 677.644 1018.38 614.712 1013.99 562.574C1011.89 537.172 1008.3 513.424 1003.32 491.989C1002.6 488.893 1001.88 485.688 1001.18 482.588C996.569 462.111 991.801 440.933 982.868 427.348C979.052 421.473 974.844 417.3 970.002 414.585C951.428 404.174 922.812 422.176 902.076 439.111C889.228 449.561 876.483 461.665 864.158 473.371C862.025 475.397 859.895 477.419 857.768 479.431C846.079 490.483 834.137 503.177 821.494 516.616C799.999 539.462 777.774 563.085 754.797 580.624C741.303 590.923 728.671 598.197 716.172 602.866C690.031 612.629 668.182 612.437 650.257 610.964C638.134 609.966 626.174 607.45 614.712 603.479C605.234 600.157 596.268 595.857 588.064 590.704C563.731 575.438 545.039 550.594 532.507 516.858C527.292 502.824 522.92 486.225 519.14 466.114C515.305 445.839 511.95 426.435 508.705 407.668C506.501 394.913 504.418 382.866 502.309 371.273C494.341 327.451 486.466 288.65 470.761 257.62C461.561 239.446 449.933 224.04 436.199 211.832C426.355 203.082 414.582 196.64 399.152 191.553C395.82 190.464 392.378 189.465 388.923 188.587C383.666 187.271 378.098 186.213 372.204 185.096C360.893 182.951 348.07 180.519 335.236 175.624C330.349 173.759 325.413 171.74 320.64 169.785C308.363 164.759 295.668 159.562 282.854 156.654C273.442 154.52 263.872 154.06 254.412 155.286C220.733 159.658 188.43 179.085 168.001 207.254L167.828 206.996C173.178 199.619 179.346 192.78 186.161 186.667C192.706 180.797 199.885 175.563 207.495 171.113C222.158 162.538 238.423 156.902 254.534 154.811C264.017 153.581 273.609 154.041 283.04 156.181C295.869 159.091 308.569 164.292 320.853 169.32C325.624 171.274 330.56 173.293 335.446 175.158C348.268 180.049 361.08 182.48 372.385 184.624C378.282 185.742 383.852 186.8 389.114 188.118C392.573 188.997 396.017 189.997 399.354 191.087C414.806 196.178 426.595 202.634 436.456 211.397C450.207 223.62 461.852 239.045 471.063 257.244C478.157 271.259 484.213 288.1 489.577 308.725C494.38 327.189 498.271 346.966 502.638 370.98C504.745 382.575 506.828 394.622 509.034 407.378C512.279 426.141 515.633 445.546 519.467 465.817C523.243 485.909 527.61 502.49 532.818 516.509C545.333 550.199 563.999 575.009 588.298 590.253C596.492 595.401 605.446 599.694 614.914 603.013C626.363 606.98 638.309 609.494 650.418 610.489C668.32 611.962 690.141 612.153 716.236 602.407C728.699 597.752 741.299 590.496 754.757 580.223C777.695 562.714 799.903 539.11 821.38 516.283C834.031 502.836 845.98 490.135 857.681 479.071C859.809 477.059 861.938 475.037 864.069 473.014C876.402 461.299 889.155 449.187 902.02 438.724C915.51 427.706 927.87 419.85 938.754 415.373C951.646 410.07 962.235 409.653 970.225 414.134C975.091 416.862 979.32 421.055 983.152 426.953C992.109 440.574 996.882 461.778 1001.5 482.281C1002.2 485.381 1002.92 488.586 1003.64 491.679C1008.62 513.131 1012.21 536.901 1014.32 562.322C1016.65 590.007 1017.29 620.923 1016.23 654.209C1015.3 683.629 1013.01 715.68 1009.44 749.468L1009.11 749.616Z" fill="#FFE492"/>
<path d="M1015.61 732.331C1025.57 658.957 1027.99 595.147 1022.79 542.672C1020.31 517.31 1015.98 494.061 1009.91 473.568C1009.62 472.592 1009.33 471.617 1009.04 470.639C1002.75 449.307 996.235 427.249 985.009 414.725C980.66 409.873 976.037 406.618 970.88 404.771C950.983 397.653 922.665 417.999 902.414 436.319C890.529 447.025 878.841 459.177 867.538 470.929C864.744 473.836 861.853 476.84 859.02 479.761C848.228 490.886 837.057 503.878 825.23 517.635C803.717 542.658 781.473 568.531 758.058 587.274C744.512 598.117 731.78 605.445 719.132 609.679C694.215 618.018 673.515 615.781 654.857 612.123C643.353 609.867 631.948 606.073 620.957 600.848C611.949 596.517 603.459 591.271 595.72 585.258C573.341 567.894 555.904 541.034 543.9 505.421C539.091 491.161 534.979 474.707 530.958 453.64C523.278 413.694 517.032 385.296 510.704 361.565C498.119 314.367 485.647 285.015 469.003 263.421C457.861 248.965 444.647 237.292 429.727 228.726C419.375 222.783 407.209 219.222 390.28 217.186C386.807 216.776 383.216 216.448 379.602 216.214C376.183 216.004 372.669 215.889 368.948 215.765C355.208 215.311 339.633 214.797 324.005 209.098C315.767 206.095 307.631 202.379 299.762 198.787C290.82 194.705 281.574 190.483 272.398 187.433C263.198 184.376 253.982 182.952 245.012 183.205C212.931 184.105 181.612 198.518 161.235 221.759L161.093 221.404C166.386 215.365 172.427 209.866 179.047 205.058C185.438 200.416 192.399 196.395 199.74 193.105C214.002 186.712 229.714 183.102 245.175 182.669C254.168 182.418 263.405 183.843 272.627 186.907C281.811 189.959 291.063 194.183 300.008 198.268C307.874 201.86 316.006 205.574 324.237 208.575C339.838 214.263 355.396 214.777 369.12 215.232C372.844 215.354 376.36 215.472 379.781 215.68C383.399 215.915 386.993 216.244 390.469 216.653C407.424 218.694 419.611 222.259 429.984 228.216C444.925 236.794 458.158 248.483 469.316 262.961C485.983 284.583 498.468 313.966 511.065 361.205C517.394 384.945 523.644 413.351 531.325 453.309C535.343 474.358 539.451 490.795 544.254 505.04C556.243 540.602 573.652 567.426 595.999 584.763C603.727 590.767 612.208 596.005 621.204 600.332C632.181 605.55 643.572 609.34 655.061 611.594C673.691 615.246 694.355 617.482 719.214 609.162C731.815 604.946 744.503 597.641 758.002 586.836C781.366 568.134 803.587 542.288 825.077 517.292C836.912 503.527 848.09 490.524 858.899 479.383C861.731 476.464 864.621 473.46 867.416 470.553C878.728 458.791 890.424 446.631 902.329 435.907C915.544 423.95 927.831 415.066 938.848 409.498C951.753 402.976 962.608 401.215 971.109 404.253C976.296 406.108 980.941 409.381 985.311 414.256C996.574 426.823 1003.1 448.911 1009.4 470.275C1009.69 471.253 1009.98 472.231 1010.27 473.204C1016.34 493.721 1020.68 516.997 1023.16 542.387C1028.36 594.908 1025.95 658.768 1015.98 732.193L1015.61 732.331Z" fill="#FFE492"/>
<path d="M661.699 613.986C660.94 613.748 660.193 613.512 659.459 613.275C648.554 609.776 637.7 604.708 627.205 598.21C618.669 592.871 610.654 586.678 603.379 579.807C592.981 570.001 583.622 557.655 575.559 543.111C567.773 529.065 560.955 512.537 555.296 493.98C549.75 475.8 545.693 456.205 542.778 441.165C535.922 406.054 527.956 376.007 519.101 351.858C504.758 312.748 488.283 286.488 467.252 269.219C454.564 258.801 439.618 250.726 423.987 245.84C423.745 245.764 423.504 245.689 423.261 245.616C409.798 241.498 395.193 241.834 381.416 242.812C377.826 243.074 374.083 243.417 370.288 243.833C368.205 244.07 366.109 244.329 363.891 244.604C348.246 246.547 330.514 248.748 312.776 242.567C301.973 238.802 291.634 233.342 281.635 228.061C275.179 224.65 268.504 221.125 261.946 218.205C252.93 214.194 244.072 211.807 235.614 211.117C205.159 208.625 174.822 218.026 154.461 236.266L154.373 235.8C164.816 226.446 177.473 219.477 191.992 215.084C205.858 210.891 221.015 209.313 235.82 210.525C244.299 211.219 253.182 213.608 262.217 217.631C268.782 220.553 275.46 224.081 281.919 227.493C291.911 232.772 302.244 238.23 313.032 241.988C330.724 248.154 348.427 245.955 364.045 244.016C366.265 243.74 368.361 243.481 370.446 243.245C374.244 242.829 377.991 242.485 381.583 242.223C395.383 241.244 410.013 240.908 423.509 245.034C439.431 249.902 454.663 258.077 467.567 268.674C478.421 277.589 487.893 288.676 496.521 302.57C504.83 315.952 512.345 331.933 519.491 351.428C528.354 375.595 536.326 405.664 543.186 440.798C546.097 455.829 550.151 475.409 555.692 493.57C567.175 531.223 583.33 560.057 603.704 579.274C610.968 586.135 618.974 592.32 627.497 597.653C637.979 604.141 648.816 609.204 659.708 612.696C676.751 618.162 697.03 623.369 722.196 615.911C734.933 612.136 747.708 604.786 761.249 593.444C785.029 573.524 807.224 545.355 828.691 518.111C839.733 504.098 850.162 490.86 860.117 479.692C863.306 476.114 866.561 472.418 869.708 468.843C880.344 456.766 891.339 444.28 902.633 433.091C915.583 420.206 927.799 410.29 938.941 403.618C951.859 395.883 962.976 392.771 971.985 394.369C977.546 395.355 982.609 397.706 987.465 401.558C1000.45 411.853 1008.79 432.582 1016.89 454.724C1023.96 474.03 1029.18 497.447 1032 522.447C1035.16 550.148 1035.76 581.676 1033.8 616.153C1032.04 646.87 1028.25 680.099 1022.52 714.918L1022.11 715.055C1034.42 640.28 1037.6 575.59 1031.58 522.782C1028.77 497.818 1023.55 474.435 1016.5 455.161C1008.41 433.058 1000.08 412.369 987.149 402.111C982.319 398.28 977.284 395.943 971.758 394.963C955.203 392.029 930.696 405.724 902.749 433.532C891.476 444.7 880.49 457.176 869.865 469.24C866.716 472.818 863.459 476.515 860.27 480.093C850.333 491.241 839.912 504.467 828.881 518.468C818.349 531.835 807.457 545.659 796.174 558.693C783.383 573.47 771.983 584.994 761.318 593.929C747.717 605.321 734.886 612.703 722.088 616.497C710.801 619.843 699.748 620.93 688.294 619.828C678.599 618.883 669.509 616.427 661.699 613.986Z" fill="#FFE492"/>
<path d="M682.887 621.941C675.988 619.784 669.666 617 664.047 614.425C653.715 609.69 643.416 603.347 633.438 595.57C625.38 589.226 617.838 582.089 611.023 574.352C592.35 553.195 577.845 523.159 566.677 482.535C561.806 464.82 558.032 446.218 554.585 428.685C547.744 394.155 538.628 365.042 527.488 342.148C511.104 308.479 491.407 287.145 465.497 275.01C450.734 268.096 433.892 263.77 416.791 262.496C402.478 261.43 387.086 264.843 372.546 268.426C368.904 269.332 365.008 270.347 360.969 271.443C359.958 271.719 358.937 272.004 357.902 272.289C340.904 277.002 321.671 282.335 302.503 276.343C302.179 276.242 301.858 276.139 301.535 276.03C288.665 271.749 276.802 264.404 265.329 257.298C260.781 254.481 256.077 251.569 251.481 248.966C242.504 243.884 234.236 240.627 226.204 239.014C196.987 233.15 168.36 237.429 147.664 250.761L147.658 250.177C157.889 243.588 170.541 239.044 184.242 237.038C197.719 235.065 212.317 235.524 226.458 238.362C234.513 239.979 242.802 243.243 251.799 248.337C256.4 250.942 261.105 253.856 265.655 256.672C277.118 263.769 288.969 271.108 301.816 275.382C321.234 281.845 340.782 276.422 358.027 271.639C359.059 271.353 360.082 271.07 361.094 270.791C365.137 269.694 369.034 268.679 372.678 267.774C387.244 264.182 402.663 260.767 417.016 261.835C434.143 263.112 451.013 267.444 465.8 274.369C478.64 280.382 489.816 288.597 499.967 299.479C510.421 310.687 519.561 324.473 527.906 341.628C539.059 364.552 548.188 393.701 555.037 428.266C558.482 445.792 562.253 464.383 567.121 482.081C578.274 522.65 592.757 552.642 611.399 573.765C618.205 581.488 625.737 588.617 633.783 594.953C643.747 602.719 654.031 609.055 664.349 613.78C681.711 621.733 700.707 628.968 725.171 622.641C738.045 619.31 750.906 611.916 764.487 600.034C788.682 578.869 811.811 546.913 832.219 518.719C842.486 504.533 852.185 491.134 861.325 479.984C864.622 475.962 867.993 471.792 871.253 467.76C881.45 455.144 891.994 442.1 902.929 430.257C915.627 416.448 927.773 405.499 939.029 397.715C951.956 388.775 963.338 384.316 972.853 384.465C978.801 384.556 984.283 385.988 989.611 388.834C1004.49 396.791 1014.7 416.309 1023.52 436.219C1031.66 454.601 1037.64 477.515 1040.83 502.485C1044.41 530.191 1044.99 562.027 1042.57 597.101C1040.41 628.467 1035.86 662.285 1029.06 697.619L1028.61 697.743C1043.07 622.636 1047.14 555.246 1040.37 502.858C1037.19 477.936 1031.22 455.065 1023.09 436.719C1014.3 416.857 1004.12 397.387 989.299 389.462C984.003 386.632 978.556 385.211 972.646 385.118C955.076 384.844 930.375 401.033 903.091 430.706C892.177 442.524 881.645 455.556 871.457 468.159C868.197 472.193 864.825 476.363 861.525 480.39C852.406 491.514 842.717 504.9 832.459 519.071C812.019 547.308 788.852 579.315 764.578 600.551C750.922 612.498 737.989 619.933 725.043 623.284C713.808 626.189 702.904 626.497 691.708 624.217C688.675 623.615 685.733 622.831 682.887 621.941Z" fill="#FFE492"/>
<path d="M695.423 628.738C695.325 628.707 695.227 628.676 695.128 628.646C685.396 625.555 676.711 620.496 668.648 615.577C658.864 609.611 649.121 601.99 639.686 592.932C632.107 585.589 625.04 577.502 618.683 568.901C601.818 546.118 588.914 515.042 578.075 471.096C574.17 455.273 570.84 438.508 567.617 422.298C567.215 420.269 566.81 418.242 566.406 416.214C559.463 381.661 549.197 353.477 535.892 332.448C517.673 303.655 494.079 286.762 463.762 280.807C447.137 277.543 428.665 277.05 410.342 279.382C395.884 281.224 381.283 286.864 363.695 294.047C360.126 295.512 356.304 297.103 351.667 299.056L351.408 299.167C342.446 302.974 332.289 307.287 321.921 309.74C310.014 312.557 299.674 312.472 290.307 309.507C275.705 304.87 262.802 295.488 250.327 286.413C247.27 284.189 244.108 281.89 241.025 279.741C232.183 273.582 224.259 269.39 216.8 266.928C189.335 257.864 161.656 257.261 140.864 265.27L140.96 264.582C151.145 260.658 163.437 258.732 176.506 259.011C189.6 259.289 203.64 261.785 217.105 266.229C224.586 268.698 232.531 272.898 241.391 279.071C244.476 281.221 247.639 283.52 250.697 285.744C263.158 294.807 276.044 304.179 290.61 308.804C290.675 308.824 290.741 308.845 290.806 308.865C311.681 315.391 333.747 306.02 351.489 298.485L351.749 298.375C356.388 296.42 360.211 294.829 363.781 293.364C381.398 286.17 396.026 280.518 410.529 278.672C428.883 276.334 447.386 276.828 464.038 280.099C478.874 283.014 491.755 288.354 503.418 296.428C515.985 305.129 526.752 316.717 536.331 331.857C549.661 352.925 559.946 381.155 566.9 415.765C567.304 417.792 567.707 419.822 568.109 421.851C571.33 438.055 574.66 454.815 578.561 470.626C589.385 514.517 602.269 545.55 619.106 568.294C625.454 576.885 632.511 584.958 640.08 592.292C649.501 601.338 659.231 608.946 668.999 614.903C686.495 625.577 704.186 634.717 728.155 629.408C741.163 626.526 754.109 619.086 767.732 606.661C792.341 584.217 815.367 549.656 835.684 519.161C845.195 504.884 854.18 491.397 862.539 480.317C865.755 476.054 869.044 471.633 872.225 467.356C882.17 453.983 892.453 440.158 903.233 427.461C915.694 412.725 927.77 400.741 939.123 391.844C952.065 381.705 963.706 375.902 973.724 374.6C979.935 373.793 985.718 374.261 991.388 376.033C991.511 376.072 991.634 376.11 991.758 376.151C1009.31 381.821 1021.49 401.36 1030.14 417.749C1039.36 435.21 1046.11 457.619 1049.67 482.556C1053.67 510.271 1054.23 542.412 1051.35 578.087C1048.77 610.101 1043.47 644.51 1035.6 680.361L1035.12 680.468C1046.83 627.124 1058.77 549.561 1049.17 482.977C1045.62 458.096 1038.88 435.739 1029.69 418.32C1021.07 401.976 1008.93 382.494 991.454 376.854C985.703 374.99 979.843 374.492 973.539 375.313C954.977 377.727 930.081 396.41 903.435 427.92C892.68 440.588 882.408 454.398 872.474 467.755C869.292 472.035 866.001 476.458 862.783 480.724C854.446 491.776 845.472 505.244 835.972 519.506C815.618 550.056 792.549 584.683 767.844 607.215C754.13 619.723 741.097 627.212 728.001 630.112C716.903 632.568 706.242 632.12 695.423 628.738Z" fill="#FFE492"/>
<path d="M704.833 635.423C702.733 634.766 700.637 633.978 698.541 633.057C689.363 629.026 681.336 623.032 673.24 616.726C663.854 609.417 654.919 600.77 645.924 590.292C638.828 581.954 632.236 572.923 626.333 563.446C611.347 539.43 599.976 507.418 589.464 459.653C586.853 447.792 584.449 435.455 582.124 423.524C580.858 417.03 579.551 410.313 578.221 403.738C571.132 368.921 559.716 341.672 544.292 322.745C523.912 297.737 497.004 285.912 462.026 286.594C443.546 286.955 423.443 290.297 403.892 296.257C388.187 301.044 372.547 309.774 355.988 319.016L354.843 319.655C352.254 321.105 349.634 322.577 346.982 324.066C345.454 324.926 343.916 325.79 342.364 326.661C332.674 332.13 322.327 337.761 311.728 341.271C299.422 345.346 288.741 345.905 279.074 342.978C262.981 338.102 249.399 326.535 236.269 315.343C234.395 313.745 232.456 312.094 230.565 310.511C221.701 303.088 214.338 298.109 207.391 294.837C181.756 282.764 155.028 277.269 134.059 279.763L134.263 278.992C155.287 276.492 182.072 281.994 207.751 294.089C214.717 297.369 222.099 302.362 230.98 309.798C232.871 311.383 234.811 313.035 236.686 314.633C249.656 325.687 263.064 337.112 278.886 342.058C279.056 342.111 279.227 342.165 279.4 342.216C299.941 348.435 320.919 338.07 342.394 325.952C343.945 325.082 345.483 324.217 347.011 323.358C349.664 321.867 352.282 320.396 354.874 318.944L356.019 318.305C372.606 309.048 388.272 300.303 404.029 295.499C423.616 289.527 443.753 286.18 462.265 285.819C497.332 285.135 524.312 296.993 544.747 322.069C560.209 341.044 571.652 368.355 578.757 403.249C580.085 409.826 581.395 416.541 582.66 423.037C584.983 434.966 587.387 447.299 589.997 459.153C600.496 506.863 611.851 538.83 626.809 562.805C632.705 572.267 639.286 581.286 646.374 589.611C655.355 600.074 664.277 608.709 673.649 616.006C687.874 627.086 705.578 640.877 731.14 636.15C744.281 633.721 757.311 626.236 770.975 613.266C796.004 589.51 818.888 552.246 839.078 519.371C847.849 505.089 856.133 491.599 863.748 480.635C866.715 476.363 869.752 471.935 872.689 467.651C882.54 453.284 892.727 438.429 903.531 424.65C915.774 408.978 927.779 395.96 939.214 385.956C952.17 374.62 964.072 367.476 974.587 364.721C981.336 362.952 987.653 362.537 993.899 363.45C1002.26 364.672 1010.04 368.592 1017.68 375.425C1024.14 381.209 1030.39 389.004 1036.77 399.258C1047.06 415.796 1054.57 437.702 1058.51 462.609C1062.92 490.33 1063.47 522.781 1060.13 559.055C1057.13 591.719 1051.07 626.719 1042.14 663.085L1041.62 663.169C1060.48 586.392 1066.29 515.329 1057.97 463.073C1054.05 438.234 1046.55 416.389 1036.29 399.901C1022.54 377.808 1008.98 366.47 993.612 364.222C987.408 363.314 981.136 363.727 974.434 365.481C949.417 372.034 922.203 401.524 903.781 425.108C893.003 438.853 882.829 453.69 872.99 468.04C870.051 472.326 867.013 476.756 864.045 481.031C856.453 491.962 848.178 505.437 839.418 519.701C819.185 552.647 796.252 589.989 771.11 613.853C757.338 626.925 744.203 634.471 730.956 636.919C721.978 638.579 713.373 638.092 704.833 635.423Z" fill="#FFE492"/>
<path d="M712.586 642.137C698.277 637.663 687.256 626.996 677.826 617.87C668.955 609.286 660.559 599.399 652.158 587.646C645.545 578.322 639.427 568.344 633.977 557.988C617.629 526.97 608.392 486.895 600.848 448.208C599.307 440.31 597.808 432.196 596.36 424.351C594.35 413.456 592.269 402.191 590.031 391.262C582.773 356.07 570.21 329.752 552.692 313.039C530.03 291.422 499.805 284.661 460.289 292.373C439.944 296.343 418.212 303.519 397.442 313.124C381.423 320.531 365.911 331.355 349.489 342.815C348.326 343.626 347.159 344.442 345.988 345.256L345.352 345.7C341.358 348.49 337.229 351.373 333.059 354.258C323.05 361.213 312.284 368.276 301.383 372.835C288.729 378.127 277.756 379.309 267.835 376.447C250.42 371.425 236.444 357.526 222.929 344.085C221.982 343.143 221.039 342.205 220.098 341.276C211.174 332.441 204.35 326.724 197.977 322.738C174.291 307.928 148.512 297.54 127.248 294.24L127.559 293.409C148.858 296.713 174.676 307.115 198.393 321.946C204.784 325.943 211.622 331.672 220.563 340.523C221.504 341.452 222.447 342.39 223.394 343.335C236.884 356.749 250.835 370.617 268.181 375.625C289.726 381.839 312.951 367.479 333.028 353.531C337.198 350.645 341.327 347.762 345.32 344.975L345.956 344.531C347.128 343.714 348.294 342.901 349.457 342.09C365.908 330.61 381.446 319.767 397.519 312.335C418.327 302.712 440.099 295.525 460.48 291.547C479.213 287.892 495.506 287.493 510.286 290.327C526.773 293.49 541.194 300.877 553.152 312.284C570.725 329.049 583.326 355.443 590.606 390.732C592.846 401.667 594.927 412.935 596.938 423.832C598.386 431.678 599.883 439.788 601.423 447.684C608.961 486.329 618.185 526.359 634.504 557.32C639.946 567.661 646.054 577.625 652.658 586.936C661.047 598.671 669.429 608.543 678.287 617.116C691.888 630.278 708.814 646.66 734.111 642.898C747.386 640.923 760.5 633.392 774.204 619.876C799.661 594.768 822.361 554.714 842.389 519.372C850.437 505.173 858.037 491.761 864.945 480.956C867.501 476.959 870.119 472.823 872.652 468.822C882.56 453.173 892.806 436.989 903.817 421.841C915.855 405.223 927.791 391.165 939.291 380.062C952.266 367.533 964.428 359.049 975.438 354.843C982.588 352.112 989.321 350.774 996.026 350.752C1005.06 350.723 1013.84 353.565 1022.14 359.2C1029.4 364.134 1036.55 371.39 1043.38 380.768C1054.74 396.381 1063.03 417.783 1067.33 442.66C1072.17 470.391 1072.69 503.146 1068.9 540.021C1065.47 573.334 1058.66 608.928 1048.67 645.81L1048.12 645.869C1069.3 567.717 1075.92 495.73 1066.75 443.171C1062.46 418.375 1054.21 397.043 1042.88 381.481C1028.2 361.311 1012.78 351.53 995.763 351.587C989.108 351.609 982.422 352.937 975.324 355.647C949.128 365.654 922.143 397.412 904.118 422.294C893.135 437.402 882.903 453.564 873.008 469.193C870.475 473.195 867.854 477.333 865.297 481.334C858.411 492.104 850.821 505.497 842.784 519.679C833.148 536.681 822.228 555.951 810.793 573.643C797.692 593.913 785.777 609.238 774.366 620.493C767.768 627.001 761.154 632.228 754.706 636.028C747.771 640.115 740.771 642.707 733.901 643.728C726.04 644.899 718.983 644.137 712.586 642.137Z" fill="#FFE492"/>
<path d="M719.266 648.933C714.536 647.454 709.922 645.108 705.37 641.88C696.406 635.524 688.979 626.753 682.425 619.018C674.164 609.266 666.082 597.821 658.404 585.003C652.277 574.703 646.634 563.779 641.635 552.529C627.276 520.269 619.829 481.015 612.244 436.765C611.57 432.832 610.892 428.824 610.238 424.946C607.657 409.681 604.989 393.897 601.852 378.79C594.413 343.156 580.703 317.771 561.103 303.339C536.38 285.134 501.881 283.388 458.566 298.153C436.339 305.73 412.977 316.737 391.006 329.989C374.462 339.967 358.802 352.933 342.222 366.661C340.538 368.056 338.847 369.455 337.148 370.859C332.916 374.358 328.366 378.112 323.769 381.855C314.114 389.739 302.676 398.586 291.054 404.397C278.043 410.905 266.775 412.712 256.611 409.92C238.002 404.813 223.852 388.459 210.168 372.644L209.647 372.043C202.946 364.302 195.756 356.349 188.578 350.642C166.7 333.246 142.508 318.355 120.459 308.711L120.867 307.844C142.939 317.498 167.154 332.402 189.051 349.814C196.248 355.538 203.452 363.503 210.163 371.255L210.685 371.857C224.34 387.636 238.462 403.952 256.98 409.036C278.365 414.908 301.675 399.089 323.679 381.118C328.275 377.376 332.823 373.622 337.053 370.125C338.751 368.723 340.443 367.322 342.127 365.929C358.735 352.178 374.424 339.189 391.021 329.178C413.035 315.899 436.441 304.871 458.709 297.28C479.03 290.355 497.544 286.993 513.732 287.289C532.229 287.63 548.324 292.747 561.571 302.499C581.246 316.986 595.007 342.462 602.471 378.218C605.61 393.338 608.279 409.128 610.861 424.402C611.516 428.278 612.195 432.286 612.869 436.218C620.446 480.426 627.885 519.638 642.218 551.842C647.21 563.074 652.845 573.982 658.962 584.268C666.63 597.067 674.698 608.495 682.947 618.232C695.875 633.497 711.968 652.492 737.105 649.65C750.513 648.134 763.71 640.56 777.453 626.493C803.348 599.99 826.803 555.175 845.65 519.164C852.991 505.137 859.924 491.888 866.16 481.291C868.125 477.949 870.141 474.504 872.091 471.172C882.217 453.857 892.69 435.953 904.121 419.047C921.868 392.724 948.796 358.508 976.303 344.982C983.898 341.248 991.051 338.986 998.168 338.069C1016.83 335.565 1034.27 343.715 1050.01 362.288C1062.45 376.978 1071.5 397.875 1076.17 422.723C1081.43 450.46 1081.94 483.524 1077.68 521.001C1075.73 538.191 1072.76 556.276 1068.86 574.752C1065.14 592.4 1060.55 610.5 1055.21 628.549L1054.64 628.576C1078.15 549.048 1085.58 476.138 1075.56 423.276C1070.89 398.522 1061.88 377.705 1049.49 363.07C1033.83 344.581 1016.49 336.468 997.937 338.956C990.873 339.866 983.775 342.11 976.236 345.817C948.918 359.248 922.135 393.292 904.477 419.485C893.073 436.346 882.617 454.227 872.502 471.518C870.553 474.851 868.537 478.299 866.57 481.642C860.355 492.204 853.43 505.433 846.101 519.44C836.617 537.561 825.868 558.099 814.426 577.078C801.277 598.886 789.245 615.261 777.642 627.137C771.022 633.912 764.373 639.292 757.881 643.127C750.887 647.259 743.815 649.754 736.866 650.538C730.765 651.23 724.93 650.704 719.266 648.933Z" fill="#FFE492"/>
<path d="M725.168 655.75C719.499 653.978 714.066 650.836 708.776 646.288C700.203 638.921 693.193 628.951 687.009 620.154C679.222 609.081 671.695 596.363 664.636 582.351C658.994 571.084 653.826 559.213 649.279 547.065C636.755 513.656 630.832 473.79 624.558 431.588C624.248 429.5 623.938 427.409 623.626 425.318C620.701 405.71 617.678 385.434 613.659 366.314C606.031 330.198 591.175 305.744 569.504 293.632C542.284 278.416 504.375 281.88 456.829 303.922C433.047 314.947 407.38 330.191 384.556 346.845C367.322 359.42 351.301 374.623 334.338 390.719C332.33 392.625 330.316 394.537 328.292 396.451C324.245 400.281 319.438 404.821 314.461 409.446C305.232 418.036 293.056 428.814 280.719 435.928C267.355 443.635 255.791 446.079 245.368 443.392C236.823 441.133 228.529 435.996 220.011 427.684C212.698 420.55 206.248 412.196 199.173 402.807C192.746 394.165 185.906 385.176 179.154 378.541C159.157 358.887 137.117 340.261 113.651 323.174L114.145 322.284C137.626 339.378 159.677 358.018 179.685 377.681C186.454 384.335 193.304 393.337 199.74 401.987C211.598 417.728 226.353 437.323 245.756 442.45C267.996 448.18 291.846 429.621 314.305 408.711C319.279 404.091 324.084 399.553 328.128 395.724C330.152 393.81 332.166 391.899 334.172 389.995C351.163 373.872 367.212 358.644 384.502 346.028C407.373 329.341 433.089 314.067 456.917 303.022C504.606 280.913 542.641 277.449 569.966 292.721C580.442 298.577 589.422 307.379 596.655 318.88C604.416 331.219 610.357 346.977 614.315 365.709C618.339 384.849 621.365 405.136 624.29 424.757C624.602 426.851 624.914 428.94 625.224 431.028C631.49 473.193 637.411 513.021 649.909 546.366C654.451 558.496 659.609 570.351 665.244 581.6C672.294 595.59 679.809 608.291 687.584 619.348C699.803 636.725 715.012 658.352 740.076 656.402C753.653 655.345 766.935 647.727 780.678 633.111C807.036 605.23 830.195 557.292 848.804 518.774C855.46 504.998 861.747 491.986 867.351 481.627C868.507 479.489 869.668 477.34 870.835 475.18C881.373 455.663 892.271 435.48 904.403 416.252C921.814 388.583 948.568 352.048 977.145 335.121C985.117 330.399 992.686 327.214 1000.29 325.385C1010.87 322.795 1021.23 323.26 1031.07 326.761C1040.05 329.957 1048.64 335.693 1056.61 343.806C1070.13 357.566 1079.94 377.958 1084.99 402.777C1090.67 430.519 1091.16 463.895 1086.45 501.973C1084.28 519.445 1081.01 537.826 1076.73 556.604C1072.62 574.588 1067.58 592.985 1061.73 611.284L1061.13 611.277C1086.6 531.54 1095.06 455.764 1084.34 403.38C1079.31 378.669 1069.53 358.361 1056.08 344.657C1039.48 327.757 1020.12 321.418 1000.09 326.32C992.547 328.136 985.036 331.296 977.125 335.981C948.745 352.792 922.135 389.14 904.81 416.672C892.711 435.849 881.829 456.002 871.304 475.494C870.138 477.655 868.976 479.806 867.819 481.943C862.235 492.264 855.957 505.259 849.311 519.015C830.648 557.643 807.422 605.72 780.896 633.78C774.271 640.825 767.588 646.365 761.037 650.242C753.987 654.413 746.844 656.806 739.806 657.354C734.727 657.744 729.866 657.219 725.168 655.75Z" fill="#FFE492"/>
<path d="M730.534 662.602C724.074 660.583 718.008 656.634 712.193 650.696C703.966 642.295 697.396 631.136 691.601 621.294C684.278 608.855 677.305 594.859 670.875 579.701C665.717 567.482 661.027 554.662 656.929 541.603C646.836 509.451 642.278 472.503 637.453 433.385C636.665 426.99 635.848 420.379 635.017 413.869C632.09 390.997 629.347 372.034 625.474 353.839C617.651 317.216 601.65 293.693 577.915 283.924C548.091 271.647 506.77 280.315 455.102 309.687C429.434 324.279 402.093 343.458 378.115 363.694C360.051 378.939 343.501 396.507 325.981 415.106C323.811 417.41 321.632 419.723 319.446 422.035C315.548 426.162 310.401 431.598 305.166 437.025C283.112 459.924 257.424 482.568 234.137 476.857C233.412 476.676 232.694 476.472 231.984 476.251C214.264 470.711 201.392 452.909 188.712 433.562L187.923 432.347C181.668 422.704 175.758 413.597 169.744 406.432C147.08 379.431 124.234 355.478 106.861 337.628L107.431 336.719C124.807 354.576 147.661 378.534 170.333 405.545C176.363 412.728 182.278 421.848 188.543 431.502L189.33 432.716C202.475 452.772 215.823 471.169 234.543 475.857C257.573 481.504 283.054 459.032 304.944 436.304C310.175 430.881 315.317 425.45 319.214 421.325C321.401 419.01 323.577 416.699 325.748 414.395C343.296 395.768 359.872 378.17 377.993 362.877C402.02 342.598 429.416 323.381 455.135 308.759C479.006 295.188 501.032 285.925 520.603 281.221C543.058 275.823 562.494 276.402 578.37 282.936C602.228 292.755 618.311 316.393 626.172 353.188C630.049 371.41 632.795 390.393 635.725 413.285C636.558 419.795 637.373 426.409 638.163 432.804C642.983 471.884 647.537 508.795 657.611 540.883C661.702 553.927 666.386 566.726 671.536 578.927C677.956 594.066 684.918 608.04 692.232 620.46C703.711 639.958 717.999 664.224 743.06 663.145C756.759 662.555 770.124 654.892 783.915 639.721C810.736 610.339 833.567 559.193 851.912 518.096C857.898 504.688 863.553 492.021 868.555 481.954L868.669 481.724C879.873 459.183 891.458 435.876 904.696 413.445C916.223 393.873 927.944 376.702 939.532 362.402C952.599 346.281 965.54 333.781 977.999 325.248C986.334 319.539 994.321 315.43 1002.42 312.689C1024.32 305.211 1045.35 309.573 1063.23 325.309C1070.42 331.641 1076.7 339.79 1081.9 349.527C1087.12 359.321 1091.14 370.526 1093.83 382.826C1099.93 410.575 1100.4 444.259 1095.22 482.943C1090.57 517.712 1081.25 556.121 1068.27 594.014L1067.64 593.969C1095.43 512.869 1104.72 436.147 1093.13 383.477C1087.73 358.815 1077.2 339.02 1062.68 326.243C1044.9 310.597 1024.01 306.253 1002.26 313.681C994.223 316.401 986.3 320.477 978.03 326.141C954.769 342.074 929.571 372.404 905.158 413.853C891.954 436.226 880.386 459.501 869.198 482.009L869.083 482.239C864.098 492.268 858.452 504.917 852.474 518.307C834.072 559.529 811.172 610.829 784.162 640.417C777.513 647.733 770.795 653.427 764.198 657.341C757.085 661.561 749.872 663.855 742.756 664.164C738.519 664.344 734.454 663.828 730.534 662.602Z" fill="#FFE492"/>
<path d="M220.514 509.677C212.59 507.2 205.11 501.829 197.718 493.324C190.373 484.874 184.022 474.393 178.251 464.327C177.21 462.497 176.179 460.673 175.156 458.861C170.06 449.844 165.248 441.327 160.336 434.329C140.75 406.432 121.632 380.885 103.14 356.183L100.077 352.088L100.715 351.168L103.778 355.263C122.269 379.97 141.391 405.518 160.981 433.422C165.906 440.438 170.725 448.965 175.826 457.994C176.848 459.805 177.879 461.629 178.92 463.457C190.766 484.12 203.952 504.678 223.334 509.272C247.194 514.839 274.481 487.949 295.585 463.904C300.986 457.756 306.288 451.604 310.304 446.931C312.518 444.356 314.725 441.782 316.926 439.213C335.176 417.923 352.414 397.814 371.488 379.735C396.664 355.875 425.739 332.709 453.357 314.507C478.98 297.619 502.77 285.385 524.069 278.145C548.5 269.841 569.597 268.163 586.776 273.159C612.696 280.512 629.943 303.23 638.031 340.675C642.505 361.453 645.157 383.245 647.163 401.824C648.254 411.934 649.252 422.26 650.218 432.246C653.634 467.598 657.169 504.151 665.315 535.41C668.953 549.377 673.164 563.123 677.83 576.265C683.616 592.5 690.025 607.748 696.881 621.582C707.598 643.205 720.935 670.116 746.047 669.896C759.868 669.774 773.314 662.069 787.154 646.338C814.457 615.395 836.911 560.938 854.952 517.182C860.288 504.242 865.327 492.018 869.761 482.295C879.756 460.376 891.546 434.956 904.993 410.652C916.375 390.054 928.022 371.841 939.612 356.521C952.723 339.191 965.925 325.354 978.854 315.391C987.42 308.789 996.065 303.615 1004.55 300.009C1016.66 294.838 1028.58 292.932 1039.98 294.346C1050.65 295.67 1060.7 299.869 1069.85 306.825C1077.56 312.691 1084.3 320.481 1089.87 329.981C1095.48 339.54 1099.79 350.61 1102.67 362.882C1105.99 377.015 1107.75 393.029 1107.89 410.478C1108.03 427.01 1106.72 444.991 1104 463.919C1098.92 499.331 1088.82 538.351 1074.8 576.753L1074.15 576.669C1104.26 494.202 1114.38 416.537 1101.93 363.585C1096.24 339.311 1084.65 319.508 1069.28 307.824C1050.29 293.377 1027.86 291.029 1004.43 301.032C996.013 304.609 987.437 309.743 978.938 316.292C954.578 335.063 929.873 366.936 905.509 411.029C892.097 435.266 880.329 460.643 870.351 482.528C865.933 492.216 860.901 504.421 855.573 517.344C846.672 538.93 836.583 563.399 825.212 586.546C812.017 613.407 799.661 633.198 787.437 647.051C780.764 654.636 774.01 660.487 767.367 664.439C760.191 668.708 752.905 670.905 745.714 670.967C742.085 670.999 738.701 670.47 735.536 669.481C716.583 663.556 705.425 641.04 696.199 622.424C689.333 608.568 682.914 593.299 677.121 577.04C672.448 563.88 668.231 550.113 664.589 536.127C656.425 504.804 652.887 468.212 649.466 432.827C648.501 422.844 647.503 412.521 646.413 402.416C644.411 383.86 641.763 362.098 637.296 341.36C629.253 304.115 612.107 281.529 586.335 274.211C545.966 262.474 491.751 290.157 453.378 315.449C425.816 333.615 396.801 356.732 371.678 380.544C352.661 398.569 335.449 418.647 317.227 439.903C315.026 442.471 312.818 445.045 310.602 447.622C306.584 452.297 301.279 458.454 295.873 464.609C287.014 474.703 273.662 489.254 260.056 499.036C253.449 503.787 247.136 507.17 241.292 509.094C234.776 511.238 228.589 511.654 222.909 510.328C222.103 510.142 221.305 509.925 220.514 509.677Z" fill="#FFE492"/>
<path d="M209.038 543.097C201.105 540.617 193.731 535.045 186.57 526.139C179.155 516.921 172.915 505.267 167.791 495.082C166.218 491.948 164.665 488.782 163.162 485.721C158.962 477.164 154.995 469.079 150.927 462.219C136.318 437.582 121.674 413.41 107.512 390.032C102.827 382.299 97.9837 374.304 93.2942 366.543L93.9954 365.612C98.6849 373.372 103.529 381.368 108.213 389.1C122.376 412.479 137.021 436.654 151.63 461.294C155.709 468.172 159.682 476.265 163.886 484.833C165.387 487.894 166.941 491.057 168.511 494.19C179.142 515.308 192.155 538.213 212.121 542.681C236.654 548.123 264.609 518.186 286.225 491.5C291.764 484.663 297.241 477.773 301.392 472.534C303.523 469.846 305.648 467.158 307.769 464.477C326.838 440.359 344.848 417.58 364.982 396.592C391.169 369.295 421.923 342.185 451.576 320.254C492.801 289.877 551.178 255.354 595.176 263.385C623.194 268.406 641.603 290.201 649.885 328.166C653.604 345.231 656.29 364.413 658.594 390.368C659.759 403.485 660.702 416.996 661.615 430.06C663.99 464.05 666.443 499.197 673.013 529.947C676.194 544.847 679.93 559.538 684.117 573.612C689.193 590.64 695.05 607.161 701.523 622.715C711.514 646.496 723.947 676.096 749.024 676.657C762.741 677.038 776.656 669.066 790.382 652.968C818.192 620.397 841.152 560.064 857.916 516.012C862.62 503.649 867.064 491.972 870.958 482.649C879.609 461.929 891.329 434.706 905.28 407.872C929.44 361.368 954.479 326.939 979.7 305.547C988.559 298.003 997.634 291.879 1006.67 287.342C1019.53 280.878 1032.23 277.795 1044.42 278.184C1055.9 278.551 1066.68 281.971 1076.45 288.351C1084.68 293.789 1091.87 301.231 1097.83 310.467C1103.84 319.795 1108.44 330.722 1111.5 342.947C1115.03 357.073 1116.89 373.17 1117.02 390.795C1117.14 407.497 1115.71 425.702 1112.78 444.907C1107.26 480.962 1096.38 520.59 1081.33 559.506L1080.66 559.378C1113.09 475.542 1124.05 396.93 1110.72 343.702C1104.68 319.556 1092.31 300.278 1075.88 289.422C1055.57 276.175 1031.61 275.822 1006.59 288.403C997.629 292.901 988.629 298.976 979.84 306.461C954.786 327.71 929.895 361.946 905.854 408.221C891.94 434.982 880.246 462.152 871.61 482.832C867.731 492.123 863.293 503.785 858.594 516.131C849.928 538.902 840.105 564.713 828.785 589.371C815.602 618.083 803.145 639.126 790.699 653.702C783.993 661.567 777.204 667.579 770.518 671.571C763.269 675.9 755.914 677.992 748.657 677.792C737.377 677.538 727.685 671.568 719.027 659.539C711.501 649.081 705.807 635.53 700.784 623.577C694.301 608.001 688.437 591.457 683.353 574.404C679.16 560.309 675.418 545.598 672.232 530.678C665.648 499.865 663.191 464.68 660.814 430.655C659.903 417.595 658.959 404.09 657.795 390.985C655.494 365.076 652.812 345.93 649.102 328.905C640.872 291.158 622.583 269.496 594.743 264.507C550.933 256.514 492.745 290.934 451.643 321.219C422.049 343.104 391.36 370.158 365.229 397.397C345.151 418.326 327.167 441.073 308.127 465.155C306.005 467.838 303.88 470.526 301.749 473.215C297.594 478.458 292.113 485.355 286.569 492.197C264.762 519.122 236.541 549.321 211.671 543.803C210.788 543.604 209.908 543.369 209.038 543.097Z" fill="#FFE492"/>
<path d="M197.61 576.537C175.933 569.761 163.097 539.593 151.718 512.848C148.221 504.63 144.919 496.867 141.513 490.111L86.5086 381L87.2673 380.06L142.272 489.171C145.687 495.943 148.993 503.715 152.495 511.945C164.313 539.724 177.71 571.21 200.904 576.094C226.087 581.402 254.726 548.422 276.861 519.101C284.101 509.511 291.324 499.708 298.311 490.228C317.419 464.302 337.177 437.491 358.472 413.448C375.381 394.357 394.6 374.8 414.048 356.894C435.384 337.249 456.7 319.77 477.402 304.943C500.227 288.598 521.75 275.902 541.369 267.21C563.069 257.597 582.384 252.93 598.779 253.337C631.623 254.153 652.806 275.117 661.736 315.648C669.158 349.329 670.873 388.644 672.532 426.666C673.976 459.761 675.469 493.98 680.709 524.472C686.762 559.688 695.327 593.119 706.167 623.833C715.299 649.711 726.665 681.921 752.006 683.402C773.408 684.653 794.222 665.736 815.637 625.564C833.853 591.395 848.803 548.78 860.816 514.54C864.909 502.871 868.776 491.849 872.157 482.988C890.793 434.138 909.215 394.761 928.471 362.61C940.486 342.551 952.944 325.216 965.499 311.088C979.524 295.307 994.091 283.049 1008.79 274.657C1021.51 267.397 1034.14 263.184 1046.33 262.136C1057.94 261.138 1068.9 263.014 1078.91 267.712C1098.6 276.951 1113.31 296.584 1120.32 322.992C1124.08 337.108 1126.03 353.293 1126.15 371.093C1126.25 387.964 1124.7 406.394 1121.55 425.875C1115.6 462.574 1103.94 502.812 1087.85 542.237L1087.16 542.065C1121.42 458.109 1133.52 376.514 1119.51 323.799C1104.64 267.817 1058.06 247.606 1008.75 275.747C959.912 303.624 915.464 371.453 872.867 483.112C869.497 491.944 865.636 502.952 861.547 514.607C849.508 548.921 834.527 591.627 816.228 625.951C806.26 644.647 796.194 659.029 786.308 668.701C780.749 674.138 775.103 678.237 769.527 680.88C763.592 683.693 757.562 684.942 751.601 684.594C749.165 684.451 746.808 684.026 744.531 683.314C736.232 680.719 728.954 674.321 722.433 663.93C715.086 652.223 709.7 636.961 705.371 624.698C694.518 593.941 685.94 560.466 679.878 525.198C674.625 494.642 673.132 460.382 671.686 427.252C670.03 389.279 668.317 350.012 660.913 316.417C652.041 276.162 631.005 255.337 598.387 254.527C532.408 252.887 427.93 336.171 358.777 414.245C337.54 438.222 317.809 464.995 298.727 490.887C291.736 500.372 284.508 510.181 277.262 519.779C262.566 539.246 250.527 552.711 239.377 562.15C232.418 568.04 225.774 572.321 219.63 574.875C212.799 577.713 206.34 578.522 200.431 577.278C199.478 577.073 198.536 576.827 197.61 576.537Z" fill="#FFE492"/>
</g>
</svg>
